<?xml version="1.0" standalone="no"?>
<!DOCTYPE svg PUBLIC "-//W3C//DTD SVG 20010904//EN"
 "http://www.w3.org/TR/2001/REC-SVG-20010904/DTD/svg10.dtd">
<svg version="1.0" xmlns="http://www.w3.org/2000/svg"
 width="2500.000000pt" height="2500.000000pt" viewBox="0 0 2500.000000 2500.000000"
 preserveAspectRatio="xMidYMid meet">
<metadata>
Created by potrace 1.14, written by Peter Selinger 2001-2017
</metadata>
<g transform="translate(0.000000,2500.000000) scale(0.100000,-0.100000)"
fill="#000000" stroke="none">
<path d="M15390 22593 c0 -7 -3 -12 -7 -11 -17 3 -64 -23 -58 -32 3 -6 -1 -13
-9 -16 -9 -3 -14 -9 -11 -14 2 -4 -7 -13 -20 -20 -13 -7 -22 -17 -19 -22 3 -4
-2 -11 -10 -14 -9 -3 -13 -10 -10 -15 3 -5 -5 -13 -18 -18 -13 -6 -20 -10 -16
-10 11 -1 -38 -51 -51 -51 -6 0 -11 -5 -11 -11 0 -5 5 -7 12 -3 7 4 8 3 4 -4
-4 -7 -14 -12 -23 -12 -10 0 -13 -6 -9 -16 3 -8 2 -12 -4 -9 -6 3 -15 -6 -20
-20 -6 -17 -14 -24 -22 -19 -8 5 -7 0 2 -11 8 -10 10 -16 4 -12 -7 4 -15 0
-18 -9 -3 -8 -11 -12 -16 -9 -6 4 -9 3 -8 -2 2 -4 -1 -9 -5 -10 -13 -3 -36
-37 -31 -45 3 -5 1 -8 -5 -8 -14 0 -56 -41 -64 -63 -4 -10 -11 -16 -16 -13 -5
3 -12 -1 -15 -10 -3 -8 -11 -12 -17 -8 -8 4 -9 3 -5 -4 3 -6 -3 -16 -14 -22
-11 -6 -20 -18 -20 -28 0 -15 -2 -15 -10 -2 -9 13 -10 13 -11 0 -1 -8 -1 -19
0 -23 1 -5 -3 -6 -9 -2 -5 3 -10 2 -10 -2 0 -10 -79 -59 -90 -56 -5 2 -7 -4
-4 -12 4 -10 0 -15 -15 -15 -12 0 -21 -4 -21 -10 0 -5 -7 -10 -15 -10 -8 0
-15 -4 -15 -10 0 -5 -7 -10 -16 -10 -8 0 -12 -5 -9 -10 4 -6 3 -9 -2 -8 -14 4
-53 -13 -53 -23 0 -6 -5 -7 -10 -4 -6 4 -16 2 -23 -3 -7 -6 -21 -12 -32 -14
-11 -1 -26 -10 -33 -18 -8 -8 -11 -9 -7 -2 3 6 2 12 -3 12 -6 0 -12 -7 -16
-15 -3 -8 -12 -12 -21 -9 -8 3 -15 1 -15 -6 0 -6 -5 -8 -11 -4 -6 3 -16 0 -21
-7 -8 -11 -11 -11 -15 -1 -4 10 -8 10 -19 1 -8 -7 -14 -7 -14 -1 0 12 -37 25
-64 22 -11 -1 -15 3 -12 9 4 7 1 8 -8 5 -10 -4 -16 -1 -16 7 0 11 -3 11 -10
-1 -6 -10 -10 -11 -10 -2 0 6 -7 12 -15 12 -8 0 -15 6 -15 13 0 8 -4 7 -10 -3
-7 -11 -10 -11 -10 -2 0 7 -4 11 -9 8 -5 -3 -12 1 -15 10 -5 14 -9 14 -23 3
-12 -10 -14 -10 -9 -1 5 8 0 12 -14 12 -13 0 -19 4 -14 11 4 8 -1 9 -16 4 -15
-5 -20 -3 -16 3 3 6 2 13 -4 17 -5 3 -10 1 -10 -5 0 -7 -5 -6 -14 2 -8 7 -11
18 -8 23 3 6 -1 4 -10 -3 -13 -10 -18 -10 -24 -1 -5 8 -3 10 7 4 8 -5 11 -4 6
1 -5 5 -16 9 -25 9 -9 0 -16 5 -15 12 2 7 -4 10 -12 7 -8 -4 -15 -1 -15 7 0 7
-3 9 -7 6 -3 -4 -15 0 -25 10 -14 13 -18 13 -18 2 0 -12 -2 -12 -9 1 -6 8 -7
18 -4 23 3 5 -4 6 -17 2 -17 -5 -21 -4 -15 5 5 9 4 11 -4 6 -7 -5 -20 1 -32
15 -12 14 -19 17 -19 8 -1 -10 -4 -9 -11 4 -6 9 -15 15 -20 11 -6 -3 -25 7
-42 22 -17 16 -25 21 -18 11 12 -15 12 -17 -3 -11 -9 3 -16 10 -16 16 0 5 -4
6 -10 3 -5 -3 -10 2 -10 12 0 15 -2 16 -10 3 -7 -11 -10 -11 -10 -2 0 7 -4 10
-10 7 -5 -3 -10 -2 -10 4 0 6 -7 7 -17 4 -10 -4 -14 -2 -9 5 4 7 -1 10 -14 7
-11 -2 -20 1 -20 6 0 6 -4 7 -10 4 -5 -3 -10 -2 -10 4 0 5 -8 8 -17 7 -10 -2
-20 0 -23 5 -3 4 -17 9 -30 11 -14 2 -32 8 -40 13 -8 5 -31 9 -51 9 -22 0 -35
4 -32 10 4 5 -1 7 -10 3 -9 -3 -19 -2 -22 3 -9 15 -27 12 -20 -2 4 -7 1 -6 -7
2 -7 8 -29 17 -48 19 -19 1 -39 6 -45 9 -18 11 -55 11 -55 -1 0 -7 -5 -5 -10
5 -6 10 -18 14 -30 11 -13 -3 -20 0 -20 8 0 11 -2 11 -10 -1 -5 -8 -10 -10
-10 -4 0 6 -6 11 -12 11 -7 0 -24 3 -37 7 -18 6 -22 5 -15 -5 6 -11 5 -12 -8
-2 -8 7 -18 10 -21 6 -4 -3 -7 -1 -7 4 0 13 -18 12 -39 -1 -10 -7 -12 -6 -6 4
6 10 3 12 -13 8 -12 -4 -22 -2 -22 3 0 4 -7 5 -17 2 -10 -4 -14 -2 -10 4 3 5
0 10 -8 10 -8 0 -11 -5 -8 -11 4 -6 0 -5 -9 1 -8 7 -18 10 -21 6 -4 -3 -7 0
-7 8 0 11 -2 11 -10 -1 -5 -8 -10 -10 -10 -5 0 6 -12 11 -27 10 -16 0 -31 3
-34 8 -4 5 -17 4 -29 -3 -15 -8 -20 -8 -16 -1 7 10 -6 16 -28 12 -4 -1 -15 4
-24 11 -11 9 -13 9 -9 1 5 -8 0 -11 -13 -10 -11 1 -20 6 -20 12 0 5 -5 3 -10
-5 -8 -12 -10 -12 -10 -1 0 11 -3 11 -16 0 -13 -10 -17 -10 -24 1 -7 11 -12
11 -23 2 -11 -10 -17 -9 -26 1 -6 8 -8 18 -4 23 4 5 1 3 -7 -3 -8 -7 -20 -13
-28 -13 -8 0 -10 5 -6 13 5 8 2 8 -9 -2 -9 -7 -17 -9 -17 -4 0 6 -17 10 -37 9
-21 -1 -44 3 -52 8 -11 8 -13 8 -7 -1 5 -10 1 -11 -17 -4 -14 6 -28 7 -31 4
-3 -4 -6 0 -6 8 0 11 -2 11 -10 -1 -8 -12 -10 -12 -10 -1 0 8 -3 11 -6 8 -4
-3 -15 -2 -25 4 -13 7 -19 6 -19 -1 0 -8 -6 -8 -20 0 -11 6 -25 8 -30 5 -6 -3
-10 0 -10 7 0 9 -3 9 -10 -2 -5 -8 -10 -10 -10 -4 0 6 -18 10 -41 10 -22 -1
-43 3 -46 8 -3 4 -9 2 -14 -5 -6 -9 -12 -10 -16 -4 -11 14 -56 15 -65 1 -6 -8
-8 -7 -8 1 0 7 -7 10 -15 7 -8 -4 -23 0 -32 7 -9 8 -14 9 -10 3 9 -16 -57 -11
-77 5 -8 7 -17 8 -20 2 -5 -8 -103 -6 -178 4 -16 2 -31 -1 -34 -6 -3 -6 -11
-6 -17 -1 -7 4 -19 8 -27 7 -8 0 -18 4 -22 10 -5 6 -8 4 -8 -5 0 -12 -2 -12
-9 -1 -7 10 -13 11 -31 1 -12 -7 -25 -8 -29 -4 -9 12 -34 17 -27 5 4 -5 -3 -9
-14 -8 -11 1 -20 4 -20 7 0 4 -7 7 -15 7 -8 0 -12 -4 -9 -9 3 -4 1 -8 -5 -8
-5 0 -13 5 -16 10 -4 6 -11 8 -16 5 -19 -12 -49 -13 -49 -2 0 8 -3 8 -9 -2 -6
-9 -32 -14 -80 -14 -41 -1 -71 -6 -71 -12 0 -7 -3 -7 -8 0 -10 14 -32 17 -32
5 0 -5 -3 -9 -7 -9 -29 5 -63 -3 -57 -12 5 -8 1 -8 -13 0 -11 6 -23 8 -26 5
-6 -6 -33 -12 -60 -13 -12 -1 -16 -6 -11 -13 5 -10 4 -10 -6 -1 -9 8 -19 9
-32 2 -10 -5 -23 -7 -28 -4 -6 3 -10 1 -10 -6 0 -8 -5 -7 -17 2 -14 12 -16 12
-8 0 6 -11 4 -13 -8 -8 -10 4 -17 1 -17 -5 0 -9 -3 -9 -12 0 -7 7 -17 8 -30 1
-10 -5 -18 -7 -18 -3 0 4 -10 -1 -22 -12 -12 -10 -18 -13 -14 -6 8 14 -3 16
-24 2 -9 -6 -20 -5 -29 3 -12 10 -13 9 -6 -2 6 -11 4 -13 -8 -8 -10 4 -17 1
-17 -6 0 -8 -4 -6 -10 3 -5 8 -10 10 -10 3 0 -6 -8 -10 -17 -9 -10 2 -21 -2
-25 -8 -5 -7 -8 -6 -8 3 0 11 -4 10 -16 -5 -8 -10 -13 -13 -9 -6 7 14 -11 17
-19 3 -3 -5 -19 -7 -36 -6 -16 1 -27 -1 -25 -6 3 -4 -3 -8 -12 -8 -23 -1 -78
-8 -78 -11 0 -1 -13 -4 -29 -6 -16 -2 -33 -7 -39 -13 -6 -6 -19 -6 -34 0 -18
6 -25 5 -29 -5 -3 -8 -14 -13 -25 -11 -10 2 -21 0 -24 -5 -3 -5 -13 -6 -22 -3
-9 4 -14 2 -10 -3 3 -6 -7 -9 -24 -8 -16 1 -32 -2 -35 -7 -3 -5 -10 -9 -15 -9
-6 0 -7 6 -3 13 5 8 3 8 -9 -2 -9 -7 -26 -11 -37 -8 -11 3 -20 1 -20 -5 0 -5
-4 -7 -9 -4 -5 4 -21 2 -35 -4 -19 -7 -26 -6 -26 3 0 8 -4 7 -10 -3 -5 -8 -10
-11 -10 -7 0 4 -8 3 -18 -2 -13 -7 -23 -6 -30 1 -9 9 -12 9 -12 0 0 -6 -7 -9
-17 -5 -12 5 -14 3 -8 -7 6 -10 4 -11 -6 -4 -21 13 -39 14 -39 2 0 -6 -11 -8
-25 -6 -14 3 -25 2 -25 -2 0 -4 -12 -5 -26 -2 -19 3 -25 1 -20 -7 4 -6 2 -11
-3 -11 -6 0 -11 5 -11 12 0 6 -7 3 -16 -8 -8 -10 -13 -13 -9 -6 3 6 1 12 -4
12 -6 0 -11 -5 -11 -11 0 -5 -5 -7 -10 -4 -6 4 -17 1 -25 -5 -12 -10 -15 -10
-15 0 0 9 -7 7 -20 -5 -20 -18 -21 -18 -14 1 6 16 5 17 -7 7 -7 -7 -21 -13
-30 -13 -10 0 -20 -6 -22 -12 -4 -10 -6 -10 -6 0 -1 8 -6 10 -13 5 -18 -11
-35 -13 -99 -17 -31 -1 -61 -6 -67 -10 -7 -4 -16 -4 -22 -1 -5 3 -10 0 -10 -7
0 -10 -2 -10 -9 1 -7 10 -10 10 -13 1 -3 -10 -9 -10 -27 0 -16 8 -21 8 -16 1
4 -8 -2 -10 -19 -7 -14 3 -26 1 -26 -4 0 -5 -14 -8 -30 -6 -17 2 -30 -1 -30
-8 0 -6 -5 -4 -10 4 -8 12 -10 12 -10 1 0 -11 -3 -11 -15 -1 -12 10 -15 10
-15 0 0 -7 -8 -10 -20 -7 -11 3 -20 2 -20 -2 0 -4 -7 -8 -15 -8 -8 0 -15 5
-15 11 0 6 -4 5 -9 -3 -5 -8 -16 -11 -26 -8 -11 5 -14 3 -9 -5 5 -8 2 -9 -9
-5 -9 3 -19 1 -23 -5 -4 -7 -9 -6 -15 3 -7 11 -9 10 -9 -4 0 -15 -3 -16 -21
-6 -17 9 -20 8 -14 -2 6 -9 3 -11 -8 -6 -10 3 -17 3 -17 -2 0 -4 -6 -8 -12 -9
-7 -1 -24 -3 -38 -5 -14 -1 -31 -6 -38 -11 -7 -4 -16 -5 -19 -2 -3 3 -19 -2
-35 -10 -23 -12 -28 -12 -22 -2 6 10 5 11 -8 1 -8 -7 -18 -10 -21 -6 -4 3 -7
1 -7 -6 0 -7 -5 -9 -10 -6 -6 4 -18 1 -27 -7 -14 -11 -16 -11 -8 2 6 12 5 13
-6 3 -7 -7 -21 -13 -32 -13 -10 0 -16 -4 -13 -9 3 -5 -6 -8 -20 -8 -15 0 -30
-6 -34 -13 -4 -6 -10 -11 -14 -11 -26 4 -36 0 -30 -11 6 -10 4 -10 -8 0 -11 9
-18 10 -23 2 -3 -6 -11 -8 -16 -5 -5 4 -9 1 -9 -5 0 -7 -7 -9 -16 -6 -8 3 -12
2 -9 -4 3 -6 -3 -10 -14 -10 -12 0 -21 -5 -21 -11 0 -5 -4 -7 -10 -4 -5 3 -16
3 -22 -2 -13 -8 -18 -9 -39 -12 -5 0 -7 -7 -3 -13 5 -8 0 -7 -11 2 -10 8 -16
10 -12 4 8 -14 -20 -27 -35 -17 -7 3 -8 1 -4 -5 4 -7 2 -12 -3 -12 -20 0 -26
-2 -38 -12 -7 -5 -18 -6 -24 -2 -7 4 -9 3 -6 -3 4 -6 -12 -15 -38 -22 -25 -6
-45 -16 -45 -21 0 -5 -7 -6 -17 -3 -11 4 -14 3 -9 -5 6 -11 -6 -16 -19 -9 -2
1 -12 -8 -20 -21 -9 -12 -20 -20 -25 -17 -12 7 -80 -34 -80 -48 0 -7 -5 -5
-10 3 -7 10 -10 11 -10 2 0 -7 -16 -20 -35 -29 -19 -9 -35 -20 -35 -25 0 -4
-7 -8 -15 -8 -8 0 -15 -5 -15 -10 0 -6 -12 -15 -26 -20 -14 -6 -23 -14 -20
-19 4 -5 -4 -7 -16 -3 -14 3 -19 2 -14 -6 4 -7 1 -12 -8 -12 -8 0 -22 -7 -30
-16 -9 -8 -16 -12 -16 -7 -1 4 -7 -3 -15 -17 -8 -14 -14 -19 -15 -11 0 9 -6 7
-19 -8 -11 -12 -22 -22 -25 -21 -7 0 -25 -13 -58 -45 -11 -11 -17 -13 -13 -5
8 13 6 13 -8 1 -9 -7 -14 -17 -11 -22 3 -5 -3 -6 -12 -2 -12 4 -15 3 -10 -5 4
-7 2 -12 -4 -12 -14 0 -78 -46 -103 -74 -10 -12 -16 -14 -12 -6 4 10 2 9 -8
-2 -8 -10 -17 -15 -20 -11 -4 3 -7 -1 -7 -11 0 -9 -4 -14 -10 -11 -5 3 -10 1
-10 -4 0 -6 -5 -11 -11 -11 -15 0 -60 -36 -53 -43 3 -3 -5 -8 -17 -12 -24 -8
-56 -35 -42 -35 4 0 -7 -8 -24 -16 -18 -9 -33 -22 -33 -30 0 -7 -5 -16 -12
-20 -7 -5 -8 -3 -3 7 5 8 -6 -1 -24 -18 -18 -18 -37 -33 -42 -33 -5 0 -9 -4
-9 -10 0 -10 -36 -50 -45 -50 -11 0 -44 -34 -39 -42 3 -4 -2 -8 -10 -8 -9 0
-16 -4 -16 -10 0 -5 -8 -10 -17 -10 -15 0 -16 -2 -3 -10 13 -9 13 -10 0 -11
-8 -1 -18 -1 -23 0 -4 0 -6 -2 -5 -6 3 -11 -49 -62 -56 -56 -3 3 -3 -4 -1 -16
2 -12 1 -19 -4 -17 -10 6 -61 -48 -61 -66 0 -11 -2 -11 -9 0 -6 10 -10 7 -15
-13 -4 -15 -9 -25 -13 -22 -7 8 -32 -16 -26 -25 2 -5 -1 -8 -6 -8 -6 0 -23
-18 -37 -40 -15 -22 -30 -37 -35 -34 -5 3 -9 -4 -9 -16 0 -12 -5 -18 -10 -15
-6 3 -13 -2 -17 -11 -6 -17 -31 -49 -61 -80 -7 -8 -10 -14 -5 -15 4 0 -2 -4
-15 -10 -13 -5 -20 -13 -17 -19 3 -5 -1 -10 -10 -10 -9 0 -14 -4 -10 -9 3 -5
-4 -12 -15 -16 -18 -6 -24 -17 -21 -37 0 -4 -6 -5 -15 -1 -8 3 -14 2 -12 -3 1
-5 -10 -22 -25 -38 -14 -16 -24 -33 -20 -39 3 -5 2 -7 -4 -4 -5 4 -16 -5 -23
-18 -7 -14 -17 -25 -22 -25 -4 0 -8 -9 -8 -21 0 -11 -4 -18 -8 -15 -5 3 -15
-6 -22 -19 -7 -13 -18 -22 -23 -18 -6 3 -7 1 -3 -5 3 -6 0 -17 -8 -25 -8 -8
-12 -17 -9 -21 4 -3 1 -6 -6 -6 -7 0 -10 -4 -6 -9 3 -5 0 -13 -6 -17 -6 -3
-17 -22 -25 -40 -8 -19 -19 -34 -25 -34 -5 0 -8 -4 -4 -9 3 -5 1 -12 -5 -16
-6 -4 -8 -11 -5 -16 4 -5 2 -9 -3 -9 -8 0 -54 -96 -49 -105 1 -2 -8 -12 -21
-20 -12 -9 -20 -21 -16 -26 3 -5 -1 -21 -10 -34 -9 -13 -16 -31 -16 -40 0 -8
-4 -15 -9 -15 -6 0 -8 -9 -6 -20 2 -11 -2 -25 -8 -32 -7 -7 -12 -17 -13 -23
-1 -24 -18 -71 -28 -77 -7 -5 -6 -8 4 -8 12 0 12 -2 2 -9 -7 -4 -14 -18 -15
-29 -1 -12 -5 -22 -10 -22 -4 0 -6 -4 -2 -9 3 -5 1 -12 -4 -15 -5 -3 -12 -21
-15 -40 -4 -19 -11 -36 -16 -38 -5 -2 -11 -13 -13 -26 -2 -13 -10 -28 -18 -33
-12 -7 -12 -9 0 -9 11 0 9 -4 -5 -15 -14 -11 -15 -14 -4 -15 12 0 12 -2 2 -9
-8 -4 -13 -11 -13 -15 1 -3 1 -7 0 -8 -3 -11 -11 -46 -13 -58 -1 -9 -6 -22
-11 -30 -5 -8 -8 -23 -6 -34 1 -11 -2 -16 -8 -12 -6 4 -11 2 -11 -3 0 -6 6
-11 13 -11 8 0 9 -3 1 -8 -6 -4 -12 -15 -12 -24 -4 -42 -6 -48 -14 -48 -5 0
-6 -4 -3 -10 3 -5 0 -10 -7 -10 -11 0 -11 -2 0 -9 11 -7 10 -11 -2 -24 -11
-11 -13 -18 -5 -23 8 -5 8 -9 -2 -14 -6 -5 -14 -25 -16 -46 -2 -21 -8 -41 -13
-44 -5 -3 -7 -18 -6 -33 2 -15 0 -27 -3 -27 -4 0 -7 -25 -6 -55 0 -30 -3 -55
-6 -55 -4 0 -6 -18 -5 -40 1 -23 -2 -40 -8 -40 -6 0 -4 -5 4 -10 8 -5 10 -10
5 -10 -6 0 -10 -15 -10 -32 1 -18 -2 -41 -7 -50 -5 -10 -5 -18 0 -18 4 0 8 -9
8 -20 0 -11 -3 -20 -6 -20 -4 0 -7 -66 -7 -146 0 -113 -3 -148 -14 -155 -10
-6 -11 -9 -1 -9 6 0 12 -5 12 -11 0 -5 -5 -7 -11 -3 -8 5 -8 1 0 -14 13 -24
14 -35 3 -28 -4 2 -7 -7 -7 -22 1 -15 -5 -38 -13 -51 -8 -13 -9 -20 -3 -17 6
4 11 2 11 -3 0 -6 -6 -11 -12 -11 -9 0 -8 -4 2 -10 12 -8 12 -10 1 -10 -9 0
-12 -8 -9 -25 3 -13 2 -22 -3 -20 -4 3 -10 -5 -14 -17 -19 -73 -30 -104 -40
-110 -6 -5 -5 -8 4 -8 11 0 11 -3 1 -15 -6 -8 -9 -19 -5 -25 3 -5 1 -10 -5
-10 -7 0 -10 -7 -6 -15 3 -8 2 -15 -2 -15 -4 0 -13 -14 -19 -30 -8 -21 -8 -28
0 -23 6 3 3 -4 -6 -17 -12 -18 -14 -27 -5 -37 9 -11 7 -12 -7 -7 -15 6 -17 3
-13 -14 4 -12 2 -22 -3 -22 -5 0 -9 -8 -9 -19 0 -10 -7 -24 -15 -31 -8 -7 -15
-23 -15 -36 0 -12 -7 -30 -16 -38 -8 -9 -13 -16 -10 -16 3 0 -3 -16 -14 -36
-11 -19 -18 -39 -15 -45 4 -5 1 -9 -5 -9 -6 0 -8 -4 -5 -10 3 -5 1 -10 -4 -10
-6 0 -11 -9 -11 -20 0 -11 -4 -20 -9 -20 -6 0 -8 -9 -6 -19 2 -11 -3 -22 -11
-25 -9 -3 -12 -10 -9 -16 3 -5 2 -10 -4 -10 -5 0 -8 -9 -6 -20 2 -11 0 -18 -6
-15 -5 4 -9 1 -9 -5 0 -6 -7 -18 -16 -27 -8 -9 -13 -22 -10 -29 3 -8 1 -14 -4
-14 -6 0 -10 -6 -10 -14 0 -8 -5 -16 -11 -18 -5 -2 -11 -10 -12 -18 -2 -8 -6
-21 -10 -27 -5 -7 -5 -13 0 -13 4 0 2 -4 -6 -9 -12 -8 -13 -12 -1 -26 11 -14
11 -16 -1 -13 -9 2 -15 -7 -17 -25 -2 -15 -7 -25 -12 -22 -5 3 -7 -4 -5 -15 2
-11 1 -20 -3 -20 -14 0 -7 -75 8 -82 12 -5 12 -7 -3 -7 -16 -1 -16 -3 -2 -31
16 -30 35 -40 35 -18 0 6 3 9 6 5 9 -8 64 21 64 33 0 6 3 9 7 9 20 -3 34 2 28
10 -3 5 -1 12 5 16 5 3 10 2 10 -4 0 -6 7 -8 15 -5 8 4 15 14 15 23 0 14 2 14
10 1 8 -13 10 -13 10 1 0 14 51 47 57 37 1 -1 9 6 17 17 9 11 16 16 16 11 0
-6 7 -1 16 10 8 10 12 12 8 4 -4 -8 5 -3 20 12 16 15 32 25 37 22 5 -2 19 2
32 11 13 8 27 12 30 8 4 -3 7 -1 7 5 0 7 9 12 19 12 11 0 23 5 26 11 4 6 13 8
20 5 7 -2 24 2 39 9 19 10 26 11 26 2 0 -8 3 -8 9 2 6 9 11 10 15 2 4 -6 13
-8 19 -4 14 9 32 12 75 15 17 0 32 6 32 12 0 7 3 7 8 1 10 -15 56 -12 66 4 7
11 10 11 17 0 7 -11 9 -11 9 -1 0 7 5 10 11 6 6 -3 15 0 20 7 6 10 9 11 9 2 0
-8 13 -13 31 -13 20 0 28 4 23 12 -5 8 -3 8 7 2 18 -12 79 -12 72 0 -3 5 0 6
8 4 8 -3 22 -1 31 4 13 6 16 5 12 -5 -3 -8 2 -14 10 -14 8 0 12 5 9 10 -4 6
-1 7 8 1 18 -11 39 -14 39 -5 0 12 44 11 52 -2 6 -9 8 -8 8 2 0 11 3 11 17 0
15 -12 16 -12 8 1 -6 12 -5 13 6 3 16 -16 33 -17 23 -2 -5 8 -1 8 13 0 14 -7
23 -7 31 1 9 9 12 9 12 0 0 -14 21 -12 32 3 5 6 8 5 8 -3 0 -9 12 -13 38 -11
21 2 43 0 49 -4 6 -4 15 -3 18 3 5 8 12 7 23 -2 9 -7 13 -8 9 -2 -4 7 9 10 41
9 26 -2 53 2 60 7 6 6 12 7 12 2 0 -5 5 -2 10 6 5 8 10 11 10 5 0 -8 92 -12
103 -5 3 2 34 8 82 15 21 3 44 10 50 15 7 6 16 5 23 -2 9 -9 12 -9 12 2 0 10
3 11 11 3 12 -12 42 -6 35 6 -2 3 12 5 32 5 21 -1 43 3 50 9 10 8 16 7 22 -2
5 -9 13 -10 21 -5 8 5 30 10 49 12 19 2 43 4 53 5 9 1 17 5 17 10 0 5 6 5 13
-2 9 -7 17 -7 23 -1 6 6 27 11 48 12 20 1 39 5 41 9 3 4 16 6 30 4 14 -1 28 1
30 5 3 5 15 6 27 2 15 -4 19 -2 13 7 -6 10 -3 11 14 2 11 -7 21 -8 21 -3 0 5
14 8 30 7 17 -1 30 2 30 7 0 5 9 7 20 3 10 -3 28 -1 40 5 15 8 20 8 20 -1 0
-8 4 -8 15 1 8 7 28 10 43 8 16 -2 33 1 39 7 6 6 27 11 47 10 20 -1 36 2 36 6
0 5 6 6 14 3 8 -3 17 -1 20 5 4 6 13 8 21 4 9 -3 15 1 15 8 0 11 3 11 10 -1 8
-12 10 -12 10 -1 0 8 3 11 7 8 3 -4 13 -1 21 6 13 10 14 9 7 -3 -7 -12 -6 -13
6 -4 8 6 22 10 32 9 9 -2 17 1 17 6 0 6 6 9 13 8 38 -5 68 2 61 14 -5 8 -2 8
9 -2 9 -7 17 -9 17 -4 0 5 10 9 23 8 12 -1 25 3 29 9 5 7 8 6 8 -3 0 -11 3
-11 15 -1 9 7 18 10 22 7 3 -4 12 1 20 11 9 10 11 11 7 2 -6 -12 -5 -13 7 -4
8 6 22 10 31 9 10 -2 18 2 18 8 0 5 3 7 7 4 3 -4 12 -2 19 3 6 6 21 13 33 15
12 3 31 8 44 11 12 3 28 6 35 6 6 1 12 4 12 7 0 4 9 12 21 19 12 8 18 9 15 3
-4 -7 -1 -8 8 -5 9 3 16 11 16 17 0 6 3 8 6 4 4 -3 19 0 34 8 15 8 31 11 35 7
3 -4 12 0 18 8 7 8 20 16 31 18 10 2 30 8 45 13 14 6 28 10 29 9 2 -1 10 7 19
17 8 10 11 12 8 4 -6 -9 -1 -9 17 3 14 9 28 13 31 9 4 -3 7 -1 7 6 0 7 5 9 10
6 6 -3 10 -1 10 5 0 6 5 8 10 5 6 -3 10 -1 10 4 0 6 6 10 13 9 6 -2 11 2 10 9
-2 7 4 10 12 7 9 -4 21 -1 29 5 7 6 16 8 19 4 4 -3 7 -1 7 5 0 7 9 12 19 12
11 0 23 5 26 10 4 6 11 8 16 5 5 -4 12 1 15 9 3 9 10 14 14 11 5 -3 11 -1 15
5 4 6 10 8 15 5 5 -3 15 2 24 10 8 9 17 16 18 16 18 -1 48 14 48 23 0 6 5 4
10 -4 5 -8 10 -10 10 -4 0 7 16 15 35 18 19 4 35 11 35 16 0 6 3 9 8 9 4 -1
10 0 15 1 4 1 10 3 15 4 28 8 80 41 75 49 -3 6 -1 7 5 3 6 -3 13 -2 17 4 4 6
11 8 16 5 5 -4 9 -1 9 5 0 6 4 9 9 5 5 -3 15 1 23 8 7 8 19 12 27 9 7 -2 17 2
22 9 4 8 13 14 19 14 6 0 14 6 19 13 5 8 11 13 15 13 10 -2 69 29 90 48 12 10
16 11 12 3 -7 -11 -4 -12 13 -3 11 7 21 16 21 21 0 5 7 6 17 3 11 -4 14 -3 9
5 -7 12 5 16 32 13 6 -1 12 3 12 9 0 5 6 10 13 10 7 0 19 6 25 12 7 7 18 13
25 14 25 2 57 17 57 26 0 5 5 6 10 3 6 -3 10 -1 10 5 0 6 4 9 9 5 5 -3 15 1
23 8 7 7 15 14 18 14 38 8 60 17 60 26 0 6 3 7 7 4 3 -4 17 0 30 8 13 9 23 12
23 8 0 -5 5 0 11 10 6 9 14 15 20 12 5 -4 9 -1 9 4 0 6 3 10 8 10 4 -1 9 0 12
1 25 10 60 9 60 -2 0 -10 2 -10 9 1 7 11 10 9 16 -8 3 -11 11 -21 16 -21 6 0
8 -4 5 -8 -2 -4 -1 -14 4 -22 6 -9 3 -19 -8 -28 -9 -7 -11 -10 -3 -6 9 5 12 3
7 -4 -4 -7 -15 -12 -24 -13 -11 0 -13 -2 -4 -6 10 -4 10 -8 1 -19 -6 -7 -9
-20 -6 -28 4 -11 1 -13 -10 -9 -13 5 -15 2 -11 -15 4 -15 0 -27 -11 -35 -23
-16 -40 -44 -20 -32 12 8 12 6 1 -8 -8 -9 -11 -21 -8 -26 4 -5 -3 -16 -15 -24
-14 -10 -17 -17 -9 -22 8 -5 6 -13 -7 -28 -12 -14 -13 -18 -3 -12 13 8 13 7 1
-8 -11 -14 -11 -17 0 -17 9 0 7 -5 -5 -11 -15 -9 -16 -13 -5 -20 11 -7 9 -9
-6 -9 -16 0 -17 -2 -6 -9 12 -8 12 -12 -2 -25 -9 -9 -14 -23 -11 -30 3 -8 0
-17 -6 -21 -8 -5 -7 -11 2 -23 10 -12 10 -14 1 -8 -9 5 -13 0 -13 -18 0 -13 6
-27 13 -30 6 -4 2 -4 -10 -2 -19 3 -21 1 -13 -14 7 -13 7 -21 -1 -25 -6 -4 -8
-14 -4 -22 5 -14 3 -14 -12 -2 -12 10 -15 10 -9 1 4 -7 2 -20 -6 -29 -7 -9 -8
-14 -2 -10 8 4 11 -2 10 -17 -1 -20 -4 -22 -15 -13 -12 10 -12 9 -2 -10 9 -17
9 -23 0 -23 -6 0 -9 -7 -5 -15 3 -8 2 -15 -3 -15 -5 0 -8 -6 -8 -12 2 -25 -15
-88 -24 -88 -5 0 -5 -7 -2 -17 4 -11 3 -14 -5 -9 -9 5 -9 1 -2 -18 7 -19 6
-25 -3 -23 -7 1 -11 -7 -10 -20 2 -13 -2 -23 -8 -23 -7 0 -7 -6 2 -17 12 -14
12 -16 0 -8 -11 6 -13 4 -7 -10 5 -14 4 -16 -7 -6 -12 9 -13 7 -10 -13 3 -13
0 -34 -7 -46 -10 -18 -10 -21 2 -14 10 6 11 5 2 -7 -16 -20 -35 -81 -24 -74 6
3 7 -1 4 -9 -3 -9 -9 -14 -13 -12 -4 3 -6 -14 -6 -37 1 -23 -3 -47 -8 -54 -5
-7 -6 -17 -2 -23 3 -5 1 -10 -5 -10 -7 0 -9 -7 -6 -16 3 -8 2 -12 -4 -9 -6 3
-10 1 -10 -5 0 -6 -5 -8 -12 -4 -8 5 -9 2 -5 -10 4 -9 3 -15 -2 -11 -6 3 -14
-3 -20 -12 -6 -10 -11 -13 -11 -8 0 6 -4 4 -9 -3 -9 -15 -3 -64 8 -58 3 2 7
-11 7 -29 1 -19 5 -42 9 -52 12 -28 13 -53 1 -53 -6 0 -6 -4 1 -11 12 -12 6
-42 -6 -35 -4 3 -6 -8 -5 -22 1 -15 3 -27 4 -27 1 0 3 -10 4 -22 2 -14 -2 -19
-10 -16 -14 5 -12 -26 2 -49 5 -7 2 -9 -9 -5 -12 4 -15 1 -12 -15 3 -12 0 -27
-6 -35 -8 -9 -8 -13 0 -13 6 0 11 -5 11 -11 0 -5 -5 -7 -11 -3 -9 5 -10 -1 -5
-20 4 -16 2 -26 -4 -26 -7 0 -7 -6 0 -20 8 -15 8 -20 -1 -20 -8 0 -7 -5 2 -17
10 -12 11 -15 1 -9 -10 6 -11 1 -6 -18 4 -18 2 -26 -7 -26 -12 0 -12 -2 0 -9
10 -6 10 -10 1 -16 -9 -6 -9 -10 1 -16 10 -6 11 -9 2 -9 -17 0 -17 -42 0 -59
10 -10 9 -11 -5 -6 -16 6 -17 2 -12 -34 4 -30 2 -41 -8 -41 -9 0 -10 -3 -2 -8
14 -9 13 -104 -1 -115 -6 -6 -5 -10 3 -14 10 -4 10 -8 1 -19 -6 -8 -7 -14 -2
-14 13 0 13 -32 -1 -49 -9 -12 -8 -13 3 -6 11 6 13 3 9 -12 -3 -12 -2 -27 3
-34 4 -7 4 -20 -1 -29 -6 -11 -5 -22 3 -30 10 -10 8 -12 -7 -6 -16 5 -17 4 -6
-9 7 -9 10 -18 7 -22 -4 -3 -1 -13 6 -21 10 -13 9 -14 -2 -7 -11 6 -13 3 -9
-13 4 -14 2 -20 -5 -15 -6 4 -8 0 -4 -10 3 -9 1 -18 -6 -21 -7 -2 -3 -5 8 -5
13 -1 16 -4 8 -9 -10 -6 -9 -14 2 -36 13 -25 13 -27 -1 -22 -8 3 -12 2 -9 -4
3 -6 13 -10 21 -10 8 0 12 -5 9 -10 -4 -6 -11 -7 -17 -4 -6 4 -6 -2 1 -15 10
-17 9 -21 -4 -21 -9 0 -14 -4 -10 -9 3 -5 -9 -8 -27 -7 -18 2 -40 -1 -49 -5
-9 -5 -19 -5 -23 -1 -4 3 -19 7 -34 7 -15 0 -33 4 -39 8 -7 5 -17 5 -23 2 -5
-3 -10 -2 -10 2 0 9 -20 13 -72 16 -16 1 -28 6 -28 11 0 5 -7 3 -15 -4 -9 -7
-15 -8 -15 -2 0 6 -8 9 -17 7 -10 -2 -18 -4 -18 -5 0 -1 -12 -3 -26 -4 -14 -2
-31 -6 -37 -10 -6 -3 -13 -3 -16 2 -2 4 -20 7 -38 7 -18 -1 -35 2 -38 6 -5 6
-53 15 -130 23 -19 2 -35 5 -35 6 0 1 -26 3 -57 4 -32 1 -58 -2 -58 -7 0 -5
-6 -4 -14 2 -9 8 -16 8 -20 2 -4 -5 -18 -6 -34 -2 -15 4 -34 7 -42 6 -8 -1
-21 3 -28 9 -8 6 -16 6 -20 0 -9 -12 -35 -12 -44 0 -3 5 -40 9 -82 10 -42 1
-76 3 -76 6 0 7 -103 5 -115 -2 -6 -3 -31 -4 -57 -4 -27 1 -48 -1 -48 -5 0 -3
-10 -6 -22 -5 -13 1 -26 -3 -30 -9 -5 -6 -8 -5 -8 3 0 8 -5 10 -12 6 -7 -4
-71 -8 -143 -9 -71 -1 -150 -6 -175 -10 -25 -5 -48 -8 -52 -7 -5 1 -8 -3 -8
-10 0 -6 -3 -9 -6 -5 -4 3 -13 -1 -21 -9 -8 -8 -18 -12 -22 -9 -5 2 -18 -7
-31 -20 -13 -13 -27 -22 -32 -19 -4 3 -20 -3 -36 -14 -15 -10 -37 -18 -49 -17
-13 1 -23 -2 -23 -8 0 -5 -6 -7 -12 -5 -7 3 -19 -2 -27 -9 -8 -8 -22 -12 -33
-10 -10 3 -15 1 -12 -4 10 -16 -126 -8 -142 8 -8 8 -18 11 -24 8 -5 -3 -10 -1
-10 4 0 6 -3 10 -7 10 -5 -1 -11 0 -15 1 -5 1 -12 4 -18 5 -5 1 -11 4 -12 5
-8 7 -96 6 -115 -1 -15 -5 -23 -5 -23 2 0 6 -5 7 -12 2 -7 -4 -38 -8 -68 -9
-30 -1 -77 -6 -105 -10 -27 -4 -69 -8 -92 -9 -24 0 -43 -3 -43 -6 0 -3 -6 -6
-12 -6 -36 -2 -94 -16 -99 -24 -3 -5 -17 -10 -32 -11 -15 -1 -27 -7 -27 -12 0
-5 -3 -6 -7 -3 -3 4 -17 0 -31 -9 -13 -9 -21 -11 -18 -5 5 8 0 8 -18 -1 -14
-6 -26 -14 -26 -17 0 -4 -9 -7 -20 -8 -11 -1 -27 -9 -36 -17 -9 -9 -20 -14
-25 -10 -5 3 -12 -1 -15 -10 -3 -8 -14 -13 -25 -11 -10 2 -19 -1 -19 -7 0 -5
-7 -8 -15 -4 -8 3 -15 2 -15 -3 0 -8 -24 -17 -74 -27 -11 -2 -22 -7 -25 -11
-3 -5 -17 -8 -31 -8 -14 0 -41 -7 -60 -17 -19 -9 -38 -14 -42 -11 -5 2 -8 -1
-8 -8 0 -7 -3 -9 -6 -6 -4 4 -20 -3 -35 -14 -16 -11 -33 -17 -39 -14 -5 3 -10
1 -10 -4 0 -6 -3 -10 -7 -10 -5 1 -10 1 -13 -1 -3 -1 -16 -4 -30 -6 -14 -3
-49 -13 -77 -24 -29 -11 -53 -16 -53 -12 0 4 -4 2 -8 -4 -4 -7 -23 -14 -42
-17 -81 -13 -195 -61 -184 -78 3 -5 -1 -6 -9 -4 -7 3 -26 -1 -42 -9 -16 -8
-32 -13 -37 -10 -4 3 -8 1 -8 -4 0 -8 -46 -35 -63 -36 -4 -1 -12 -8 -17 -16
-5 -8 -10 -10 -10 -5 0 6 -4 5 -8 -1 -10 -16 -91 -42 -124 -40 -15 1 -28 -1
-28 -5 0 -5 -16 -11 -35 -15 -19 -3 -35 -11 -35 -17 0 -6 -3 -7 -7 -4 -3 4
-20 -2 -38 -13 -18 -11 -35 -17 -38 -13 -4 3 -9 -1 -13 -10 -3 -9 -12 -13 -19
-11 -7 3 -16 0 -20 -5 -3 -6 -11 -9 -16 -6 -5 4 -9 1 -9 -5 0 -6 -4 -9 -9 -5
-6 3 -14 -2 -19 -11 -5 -9 -12 -16 -15 -16 -22 0 -46 -12 -40 -21 4 -6 0 -8
-9 -4 -9 3 -25 -1 -37 -9 -11 -8 -21 -12 -21 -9 0 3 -10 0 -22 -7 -13 -7 -27
-12 -31 -13 -4 0 -12 -7 -17 -15 -5 -8 -10 -12 -10 -7 0 4 -8 -1 -18 -10 -10
-10 -37 -34 -60 -53 -23 -19 -42 -41 -42 -47 0 -7 -4 -13 -8 -13 -5 0 -17 -8
-28 -17 -31 -29 -80 -53 -89 -45 -5 4 -5 1 -1 -5 4 -7 2 -14 -3 -14 -6 -1 -16
-2 -21 -3 -6 0 -14 -6 -18 -11 -4 -6 -27 -23 -52 -39 -25 -16 -56 -41 -70 -55
-14 -14 -38 -34 -53 -45 -15 -10 -24 -23 -20 -29 3 -6 1 -7 -6 -3 -7 5 -20 -2
-33 -16 -11 -12 -25 -22 -30 -20 -6 1 -22 -10 -36 -25 -14 -15 -27 -27 -29
-26 -8 4 -43 -10 -43 -18 0 -5 -8 -9 -17 -10 -10 0 -13 -3 -6 -5 7 -3 -3 -19
-23 -40 -19 -18 -32 -34 -29 -34 3 0 0 -6 -7 -14 -7 -8 -16 -12 -20 -9 -5 2
-8 -3 -8 -11 0 -8 -5 -18 -12 -22 -7 -5 -9 -2 -3 7 4 8 -4 1 -19 -16 -14 -16
-25 -26 -26 -21 0 5 -11 -3 -25 -18 -13 -14 -27 -26 -30 -26 -13 0 -45 -42
-39 -52 4 -7 3 -8 -4 -4 -7 4 -12 2 -12 -4 0 -6 -4 -8 -10 -5 -5 3 -10 -3 -10
-14 0 -12 -6 -20 -12 -18 -7 1 -12 -2 -11 -8 0 -5 -5 -16 -13 -23 -8 -7 -14
-10 -14 -6 0 4 -9 -3 -20 -16 -11 -13 -20 -19 -20 -14 0 5 -4 4 -8 -3 -4 -6
-14 -13 -21 -15 -8 -2 -23 -11 -33 -20 -10 -10 -25 -18 -34 -18 -8 0 -13 -4
-9 -9 3 -5 -4 -12 -15 -16 -11 -4 -18 -10 -15 -15 3 -4 -7 -11 -20 -14 -14 -4
-23 -11 -20 -16 3 -5 -4 -11 -15 -15 -11 -3 -20 -13 -20 -21 0 -9 -5 -12 -12
-8 -7 5 -9 2 -5 -9 4 -10 -1 -18 -14 -22 -10 -4 -19 -15 -19 -27 0 -13 -5 -18
-14 -15 -9 4 -16 -3 -21 -20 -3 -14 -8 -23 -11 -20 -3 3 -23 -12 -44 -33 -21
-21 -41 -36 -44 -33 -3 4 -6 0 -6 -8 0 -8 -9 -21 -20 -29 -11 -8 -20 -20 -20
-26 0 -17 -30 -45 -41 -39 -5 4 -6 0 -3 -8 3 -8 -2 -20 -11 -27 -8 -7 -15 -19
-15 -26 0 -8 -3 -14 -8 -14 -4 0 -16 -17 -27 -37 -11 -21 -22 -40 -26 -43 -6
-6 -19 -37 -18 -46 0 -4 -4 -10 -9 -13 -6 -3 -12 -13 -14 -21 -5 -22 -22 -39
-33 -32 -5 3 -3 -3 5 -13 9 -11 10 -16 3 -11 -8 4 -13 1 -13 -8 0 -9 -5 -16
-12 -16 -6 0 -9 -3 -5 -6 3 -4 -1 -13 -9 -21 -8 -8 -12 -19 -9 -24 4 -5 1 -9
-6 -9 -7 0 -10 -3 -6 -6 3 -3 -5 -18 -19 -33 -13 -14 -22 -32 -19 -38 2 -7 -3
-13 -11 -13 -8 0 -13 -3 -11 -7 5 -11 -30 -43 -38 -35 -4 4 -6 2 -5 -3 5 -22
-1 -36 -12 -29 -7 5 -9 2 -5 -9 3 -9 0 -18 -9 -21 -9 -3 -13 -10 -10 -14 3 -5
-4 -15 -15 -22 -10 -8 -19 -20 -19 -27 0 -7 -5 -13 -11 -13 -5 0 -8 -4 -4 -9
3 -6 -3 -14 -12 -20 -14 -8 -15 -11 -3 -11 12 0 11 -3 -3 -11 -9 -6 -15 -14
-12 -20 4 -5 2 -9 -4 -9 -6 0 -8 -7 -5 -15 4 -8 2 -15 -4 -15 -8 0 -23 -36
-26 -63 -1 -4 -7 -12 -15 -16 -7 -5 -11 -13 -7 -19 3 -5 -1 -13 -9 -16 -8 -3
-15 -9 -14 -13 2 -15 -13 -53 -22 -53 -5 0 -5 -7 -2 -17 4 -11 3 -14 -5 -9 -8
5 -12 0 -12 -13 0 -12 -4 -21 -8 -21 -8 0 -44 -78 -42 -93 0 -4 -6 -15 -15
-23 -8 -9 -13 -20 -10 -25 4 -5 -1 -9 -10 -9 -9 0 -13 -4 -10 -10 3 -5 2 -10
-4 -10 -6 0 -7 -7 -4 -17 4 -10 2 -14 -4 -10 -9 6 -49 -60 -45 -75 1 -5 -3 -8
-9 -8 -5 0 -8 -4 -4 -9 3 -5 -2 -17 -11 -25 -8 -9 -13 -16 -10 -16 3 0 -2 -16
-10 -35 -8 -19 -11 -35 -7 -35 5 0 3 -4 -3 -8 -10 -6 -19 -44 -28 -119 -1 -12
-9 -30 -17 -39 -12 -15 -12 -16 0 -9 11 6 12 5 5 -6 -4 -8 -9 -18 -10 -24 -1
-5 -10 -41 -19 -80 -9 -38 -16 -80 -16 -93 1 -15 -3 -21 -11 -16 -8 5 -9 2 -5
-9 3 -9 2 -19 -4 -22 -5 -4 -7 -11 -4 -16 4 -5 2 -9 -3 -9 -5 0 -9 -7 -10 -15
-1 -8 -3 -22 -4 -30 -1 -8 -5 -15 -10 -15 -4 0 -8 -11 -8 -24 0 -13 -7 -26
-15 -30 -8 -3 -14 -11 -13 -18 2 -7 -4 -12 -12 -10 -8 2 -12 0 -8 -3 10 -10
-11 -47 -22 -40 -6 3 -7 0 -4 -8 3 -8 0 -18 -5 -22 -6 -3 -9 -11 -5 -16 3 -5
0 -8 -7 -7 -7 2 -14 -3 -15 -9 -1 -7 -3 -15 -4 -18 -1 -3 -3 -8 -5 -12 -1 -5
-5 -16 -9 -25 -4 -9 -5 -22 -1 -28 3 -5 2 -10 -2 -10 -5 0 -8 -13 -7 -30 1
-17 -3 -30 -9 -30 -7 0 -5 -5 3 -10 13 -9 13 -11 0 -20 -10 -6 -11 -10 -3 -10
16 0 14 -70 -1 -70 -7 0 -7 -3 1 -8 13 -8 11 -50 -2 -72 -6 -9 -4 -11 5 -5 10
6 12 4 6 -11 -12 -31 -12 -39 3 -36 12 3 12 -1 0 -20 -18 -28 -18 -54 1 -50
11 3 11 0 1 -12 -7 -8 -10 -20 -6 -26 3 -5 1 -10 -4 -10 -6 0 -11 -7 -11 -15
0 -8 -5 -15 -11 -15 -5 0 -7 -4 -4 -10 3 -5 -1 -24 -10 -41 -12 -23 -13 -29
-3 -23 10 6 11 5 1 -8 -7 -8 -10 -18 -6 -22 4 -4 1 -11 -7 -16 -10 -6 -11 -10
-3 -10 9 0 10 -7 2 -26 -5 -15 -7 -29 -4 -32 2 -3 0 -10 -5 -17 -5 -6 -10 -35
-11 -63 -1 -29 -5 -52 -8 -52 -3 0 -7 -37 -8 -82 -1 -45 -5 -98 -9 -118 -3
-19 -8 -44 -9 -55 -2 -11 -4 -20 -5 -20 -1 0 -3 -14 -5 -31 -1 -17 -5 -36 -9
-43 -4 -6 -3 -11 2 -11 4 0 6 -17 4 -38 -2 -20 -5 -55 -6 -77 0 -22 -4 -42 -8
-45 -4 -3 -3 -22 1 -43 6 -23 5 -37 -1 -37 -5 0 -6 -5 -2 -12 4 -6 7 -33 7
-60 -1 -26 3 -48 7 -48 5 0 7 -8 5 -17 -1 -10 4 -31 12 -47 10 -18 11 -26 3
-21 -9 5 -10 1 -5 -16 11 -33 17 -68 18 -106 0 -18 4 -33 8 -33 4 0 9 -23 11
-50 2 -29 -1 -50 -7 -50 -5 0 -4 -4 4 -9 9 -6 10 -11 2 -15 -6 -4 -9 -11 -6
-16 2 -4 6 -28 6 -54 1 -25 6 -46 10 -46 5 0 4 -12 -1 -26 -7 -16 -7 -23 0
-19 6 3 11 -5 11 -19 2 -35 3 -39 13 -55 7 -11 6 -12 -5 -6 -12 8 -12 6 0 -8
7 -9 10 -17 6 -17 -4 0 -2 -7 5 -15 8 -10 9 -15 1 -15 -7 0 -8 -8 -1 -26 6
-14 8 -30 4 -35 -3 -5 -1 -9 4 -9 5 0 8 -16 7 -36 0 -19 2 -37 6 -39 3 -3 4
-17 1 -31 -4 -21 -2 -25 9 -19 11 7 11 5 -1 -10 -12 -15 -12 -17 -1 -10 11 6
13 4 8 -8 -3 -9 1 -18 10 -21 12 -5 13 -9 3 -21 -8 -10 -9 -15 -1 -15 6 0 9
-13 7 -30 -2 -16 4 -39 12 -51 12 -18 13 -21 1 -14 -12 8 -12 6 -1 -8 8 -9 11
-21 7 -27 -3 -5 -1 -10 6 -10 7 0 9 -3 6 -7 -4 -3 -2 -12 4 -20 6 -7 8 -13 5
-13 -4 0 -2 -9 4 -20 8 -15 8 -20 -1 -20 -8 0 -7 -5 2 -16 8 -9 12 -27 11 -40
-2 -13 2 -24 8 -24 6 0 9 -4 5 -9 -3 -5 0 -13 6 -16 5 -4 8 -13 5 -20 -2 -7 2
-22 10 -34 12 -16 12 -21 2 -21 -9 0 -9 -3 2 -10 8 -5 11 -10 6 -10 -5 0 -3
-6 3 -13 6 -8 8 -16 6 -19 -7 -6 15 -58 24 -58 3 0 7 -15 8 -32 2 -18 7 -34
13 -36 6 -2 8 -8 4 -13 -3 -5 -1 -9 5 -9 6 0 8 -7 5 -15 -4 -8 -1 -15 5 -15 6
0 11 -9 11 -20 0 -11 4 -20 10 -20 5 0 7 -6 4 -14 -3 -7 2 -20 10 -29 19 -19
21 -31 4 -22 -7 4 -3 -2 9 -13 12 -11 19 -22 16 -26 -3 -3 2 -16 13 -28 12
-13 13 -18 4 -13 -12 7 -13 6 -3 -6 6 -8 13 -23 15 -34 1 -11 12 -25 23 -32
18 -11 18 -12 2 -13 -10 0 -15 -5 -12 -11 4 -6 14 -8 22 -4 13 4 14 3 3 -10
-10 -12 -10 -15 4 -15 13 0 16 -5 11 -21 -5 -14 -3 -19 3 -15 6 3 13 2 17 -4
3 -5 2 -10 -3 -10 -5 0 -9 -7 -9 -15 0 -9 6 -14 13 -11 8 3 11 0 8 -9 -3 -7 0
-24 7 -37 7 -13 13 -28 14 -33 0 -20 78 -144 86 -139 8 5 14 -18 10 -39 -1 -5
3 -6 9 -2 5 3 10 1 10 -5 0 -6 7 -18 15 -27 8 -8 13 -19 10 -24 -4 -5 1 -9 9
-9 9 0 15 -3 14 -7 -4 -14 13 -53 23 -53 5 0 9 -7 9 -15 0 -15 3 -23 33 -81 9
-17 14 -34 10 -38 -3 -3 -1 -6 5 -6 7 0 12 -6 12 -13 0 -7 9 -23 19 -34 11
-12 17 -24 14 -27 -4 -3 -1 -6 6 -6 7 0 9 -4 6 -10 -3 -6 -1 -10 4 -10 6 0 11
-7 11 -16 0 -9 10 -25 22 -35 11 -11 17 -19 13 -19 -5 0 0 -7 11 -16 10 -8 13
-13 7 -9 -7 3 -13 1 -13 -4 0 -6 5 -11 10 -11 6 0 10 -7 10 -15 0 -8 5 -15 11
-15 5 0 7 -4 4 -10 -3 -6 -1 -10 5 -10 6 0 8 -5 5 -10 -3 -5 -1 -10 5 -10 6 0
8 -5 5 -10 -3 -6 -1 -10 6 -10 6 0 9 -8 6 -20 -3 -11 -2 -18 3 -15 4 3 10 -5
13 -16 4 -13 10 -18 18 -13 8 4 10 3 5 -4 -4 -7 -2 -12 3 -12 6 0 11 -7 11
-15 0 -8 4 -15 8 -15 4 0 9 -10 9 -22 1 -13 7 -24 13 -26 5 -2 10 -10 10 -18
0 -9 4 -12 10 -9 5 3 7 0 4 -8 -3 -8 6 -23 20 -35 14 -11 26 -23 26 -27 0 -4
16 -22 35 -39 19 -18 32 -36 28 -39 -3 -4 -1 -7 6 -7 7 0 9 -4 6 -10 -3 -5 1
-10 9 -10 14 0 21 -18 17 -42 0 -4 5 -5 13 -2 9 3 21 -7 32 -25 10 -17 22 -31
27 -31 4 0 6 -4 3 -9 -3 -4 6 -21 19 -37 14 -16 25 -35 25 -41 0 -7 7 -13 16
-13 8 0 13 -4 10 -9 -6 -8 30 -25 48 -22 5 1 6 -5 2 -14 -3 -9 -2 -13 3 -10 6
3 14 -3 20 -12 6 -10 11 -14 11 -9 0 9 50 -41 50 -50 0 -10 28 -33 33 -28 3 3
4 -3 4 -13 -1 -10 4 -17 10 -16 7 2 13 -2 13 -8 0 -16 26 -39 36 -31 5 4 6 3
2 -2 -4 -5 -2 -18 4 -30 7 -11 11 -25 10 -29 -1 -5 2 -6 8 -2 9 5 14 -7 11
-27 0 -4 6 -5 14 -2 9 4 15 0 15 -10 0 -9 8 -16 17 -16 9 0 13 -3 10 -7 -7 -7
39 -53 54 -53 5 0 8 -3 8 -7 -3 -19 2 -33 10 -30 5 1 10 -2 11 -8 2 -5 16 -19
31 -31 16 -11 26 -24 22 -28 -4 -4 0 -4 9 -1 9 4 19 1 24 -6 5 -8 3 -10 -6 -4
-8 5 -11 4 -6 -3 4 -6 12 -9 19 -6 7 2 19 -7 27 -20 7 -14 17 -23 22 -20 7 5
12 -10 9 -28 0 -5 3 -8 8 -8 5 0 25 -16 45 -35 20 -19 36 -32 36 -29 0 2 6 -1
14 -8 8 -7 12 -16 9 -20 -2 -5 1 -8 7 -8 6 0 9 -4 6 -9 -3 -5 1 -12 10 -15 8
-3 12 -11 8 -17 -4 -8 -3 -9 4 -5 7 4 12 2 12 -3 0 -6 6 -11 14 -11 8 0 17 -7
20 -16 4 -9 9 -14 13 -11 3 4 17 -6 31 -21 13 -15 21 -21 17 -13 -5 9 -4 12 3
7 6 -4 8 -14 5 -23 -4 -10 -2 -14 5 -9 6 3 13 -3 17 -14 3 -11 13 -20 20 -20
8 0 19 -9 25 -20 6 -11 15 -18 20 -15 5 3 11 1 15 -5 4 -6 11 -8 16 -5 5 4 9
1 9 -4 0 -6 7 -11 15 -11 8 0 15 -4 15 -10 0 -5 3 -9 7 -9 20 3 34 -2 28 -11
-3 -5 1 -10 9 -10 8 0 25 -10 37 -23 12 -12 19 -15 15 -7 -4 8 2 4 13 -9 12
-13 21 -20 21 -17 0 4 13 0 30 -9 17 -9 30 -20 30 -26 0 -6 4 -8 8 -5 11 6 26
-5 40 -29 6 -11 12 -14 12 -7 0 10 3 10 15 -2 8 -8 15 -19 15 -25 0 -6 7 -7
17 -4 11 4 14 3 9 -5 -4 -7 -1 -12 8 -12 9 0 25 -9 35 -19 11 -11 30 -21 43
-23 13 -2 22 -9 21 -15 -1 -6 5 -10 14 -9 9 2 36 -8 59 -21 24 -14 48 -22 53
-19 5 3 12 -1 15 -10 3 -8 10 -13 15 -9 5 3 13 0 16 -6 4 -5 13 -8 21 -5 8 3
13 1 11 -3 -1 -5 2 -11 8 -13 5 -1 22 -16 37 -32 16 -16 28 -25 28 -21 0 4 8
1 18 -8 19 -17 72 -41 85 -38 5 1 6 -3 2 -9 -3 -5 5 -14 19 -20 14 -5 26 -15
26 -22 0 -9 3 -8 10 2 6 10 10 11 10 3 0 -7 7 -13 15 -13 8 0 23 -9 32 -19 9
-11 20 -18 25 -15 4 3 8 0 8 -7 0 -7 3 -9 6 -6 4 4 14 -2 23 -12 9 -10 26 -17
38 -16 12 1 25 -5 28 -12 2 -8 9 -11 15 -8 5 3 10 1 10 -5 0 -6 5 -8 10 -5 6
3 10 2 10 -3 0 -12 49 -34 61 -27 5 4 9 1 9 -5 0 -6 4 -9 8 -6 4 2 14 1 22 -4
9 -5 19 -5 27 2 10 8 13 6 13 -6 0 -9 3 -15 8 -14 11 4 72 -26 72 -35 0 -5 4
-5 10 -2 5 3 10 2 10 -4 0 -6 11 -13 25 -17 14 -3 25 -10 25 -16 0 -5 4 -7 10
-3 5 3 18 -2 28 -12 10 -10 25 -20 33 -22 21 -5 43 -9 52 -10 5 -1 5 -7 1 -13
-5 -9 -2 -9 9 1 14 11 17 11 17 0 0 -11 2 -11 10 1 8 12 10 12 10 1 0 -9 8
-12 25 -9 17 4 29 0 35 -11 6 -10 9 -11 10 -3 0 8 8 6 22 -8 12 -11 30 -20 40
-20 11 0 16 -4 13 -10 -5 -8 15 -13 41 -9 4 0 10 -5 14 -11 4 -7 19 -12 34
-12 14 0 26 -4 26 -8 0 -3 6 -7 13 -7 22 -1 41 -8 56 -21 7 -7 20 -11 28 -8 8
3 11 1 8 -4 -3 -6 1 -10 9 -10 9 0 16 -6 16 -12 0 -9 4 -8 10 2 6 10 10 11 10
3 0 -7 9 -13 20 -13 11 0 20 -4 20 -8 0 -5 10 -8 23 -7 12 1 27 0 32 -4 6 -3
19 -6 30 -6 11 0 26 -4 34 -9 10 -6 12 -6 7 2 -5 8 5 11 34 10 24 -1 44 -7 49
-16 7 -12 9 -12 14 3 4 9 11 14 16 10 6 -3 7 -13 4 -23 -6 -15 -5 -15 10 -3
13 10 17 10 17 1 0 -10 4 -10 16 1 9 7 18 9 22 3 7 -8 27 -13 79 -17 11 -1 19
-5 16 -9 -4 -8 1 -10 30 -12 6 -1 15 -5 18 -10 4 -4 22 -10 40 -11 19 -2 34
-4 34 -5 0 -3 41 -9 73 -12 17 -1 32 -6 32 -11 0 -5 9 -7 20 -4 11 3 20 1 20
-5 0 -5 5 -6 10 -3 6 4 17 1 25 -5 8 -6 19 -9 25 -5 5 3 10 0 10 -7 0 -10 3
-9 10 2 8 13 10 12 15 -1 6 -16 12 -18 60 -21 14 -1 25 -5 25 -9 0 -9 27 -6
36 4 4 4 14 1 22 -6 18 -14 22 -13 33 5 7 10 9 10 9 1 0 -7 12 -13 26 -13 15
0 23 -4 19 -10 -4 -7 3 -9 20 -6 17 3 28 0 32 -10 3 -7 9 -11 14 -8 5 3 9 0 9
-6 0 -7 7 -10 15 -6 8 3 15 0 15 -6 0 -7 4 -7 13 0 8 7 18 7 27 2 9 -5 19 -5
26 1 8 7 15 6 20 -2 5 -8 3 -9 -6 -4 -9 5 -11 4 -6 -3 4 -7 15 -8 30 -2 15 5
27 5 35 -3 6 -6 11 -7 11 -2 0 6 5 3 10 -5 6 -9 10 -11 10 -3 0 7 7 10 15 7 8
-4 12 -10 9 -15 -3 -5 2 -6 10 -3 9 3 16 11 16 16 0 6 6 5 15 -2 8 -7 15 -8
15 -3 0 11 29 11 47 0 6 -4 14 -3 18 3 3 5 11 10 16 10 6 0 8 -4 5 -9 -4 -5 2
-8 11 -7 9 2 19 8 21 15 3 9 8 9 20 -1 9 -8 13 -8 9 -2 -4 7 0 15 9 18 10 4
13 2 8 -7 -5 -9 -4 -9 7 1 16 15 33 16 23 1 -4 -8 -1 -8 12 -1 11 5 45 8 77 7
31 -1 57 1 57 5 0 4 12 5 26 2 21 -4 25 -2 19 9 -8 12 -6 12 8 0 13 -10 17
-10 17 -1 0 10 3 10 15 0 8 -7 15 -8 15 -4 0 5 36 9 80 9 44 0 80 3 80 7 0 3
10 4 22 0 16 -4 19 -2 13 9 -7 12 -6 12 7 1 8 -7 30 -10 49 -8 19 3 38 5 42 5
5 1 5 7 1 14 -5 8 -2 8 9 -2 11 -9 17 -10 17 -2 0 6 3 10 8 9 4 0 15 2 25 7 9
4 28 5 42 3 13 -3 26 0 29 6 2 6 5 7 5 1 1 -8 152 -12 164 -5 1 1 13 3 27 4
34 4 117 16 143 22 12 3 36 8 52 11 17 2 36 10 44 16 12 10 13 9 6 -3 -7 -12
-6 -13 6 -4 8 6 43 12 79 12 68 2 103 7 120 17 6 3 10 1 10 -6 0 -8 3 -9 13 0
8 6 17 8 20 4 4 -3 7 -1 7 5 0 6 7 9 15 6 8 -4 15 -2 15 3 0 5 10 9 22 10 11
1 24 6 27 11 3 5 13 9 21 10 8 1 33 4 55 7 22 3 48 6 58 6 9 0 17 3 17 7 0 4
8 8 18 9 36 3 87 15 99 24 7 7 13 5 17 -3 5 -10 7 -10 12 0 3 6 16 12 29 12
13 0 26 4 29 9 3 4 17 7 31 6 14 -2 25 2 25 8 0 5 3 7 7 4 3 -4 12 -2 20 4 7
6 13 8 13 3 0 -5 4 -3 9 5 11 17 119 24 138 9 7 -5 14 -5 18 2 3 5 16 10 29
10 12 0 28 6 35 12 11 11 13 10 7 -2 -5 -10 -2 -9 7 2 8 10 23 16 35 13 12 -2
22 0 22 5 0 5 7 7 15 4 8 -4 15 -2 15 3 0 4 16 8 37 7 20 -1 46 2 57 6 47 19
61 23 69 22 4 -1 7 3 7 8 0 6 9 10 19 10 11 0 26 6 33 13 7 8 19 12 26 9 6 -2
12 1 12 7 0 6 6 8 14 5 8 -3 17 0 21 5 3 6 11 9 16 6 5 -4 9 -1 9 5 0 7 7 10
15 6 8 -3 15 -1 15 3 0 5 8 8 18 6 9 -1 23 2 30 8 6 5 12 6 12 1 0 -5 4 -3 9
4 4 7 17 14 29 15 11 0 19 4 17 7 -2 3 14 14 36 24 21 11 39 23 39 28 0 4 7 8
15 8 7 0 19 8 24 18 6 9 11 14 11 9 0 -4 18 4 40 18 22 14 46 25 55 25 8 0 15
4 15 9 0 6 9 8 20 6 11 -2 20 2 20 8 0 7 8 13 18 14 44 5 79 15 114 33 9 5 26
7 37 5 11 -2 20 1 18 7 -1 6 7 12 18 14 11 1 25 11 32 20 7 10 13 15 13 11 0
-4 10 -1 23 8 13 8 27 12 31 8 4 -5 6 -1 4 7 -2 9 3 14 13 12 8 -1 25 7 37 18
12 11 26 20 32 20 6 0 13 7 16 15 4 8 10 12 15 9 5 -3 9 0 9 7 0 7 3 10 6 6 4
-3 13 1 21 9 8 8 19 12 24 9 5 -4 9 1 9 10 0 9 4 14 9 11 5 -4 11 -2 13 3 1 5
10 11 18 13 22 5 39 22 32 33 -3 6 2 4 11 -4 15 -12 17 -11 17 2 0 11 6 14 15
10 10 -3 15 -1 13 7 -2 7 8 14 21 16 13 2 36 13 51 24 16 11 32 20 38 20 5 0
17 10 26 22 9 13 14 17 11 11 -3 -7 -1 -13 4 -13 6 0 11 5 11 10 0 6 12 16 28
22 15 7 41 27 58 45 17 18 34 30 37 26 4 -3 15 5 26 18 11 13 20 21 21 17 0
-5 9 1 20 12 12 12 26 18 32 14 7 -4 8 -3 4 4 -4 7 -3 12 2 12 13 0 52 36 52
48 0 6 9 13 19 17 11 3 22 13 25 21 3 8 10 12 16 9 5 -3 10 -1 10 5 0 6 5 8
10 5 6 -3 10 -1 10 4 0 6 6 11 14 11 8 0 21 9 29 20 8 11 17 17 20 13 4 -3 7
-1 7 5 0 7 7 12 16 12 8 0 13 4 10 9 -3 5 7 17 22 27 15 9 35 26 45 37 9 11
17 16 17 12 0 -4 8 2 19 13 10 12 23 22 30 22 6 0 11 5 11 11 0 5 5 7 10 4 6
-3 10 1 10 10 0 9 4 14 8 11 5 -3 19 8 31 25 12 16 26 27 31 24 6 -4 7 1 3 11
-5 13 -3 16 10 11 9 -3 17 -3 17 1 0 5 7 17 16 28 8 10 12 13 9 6 -6 -11 -3
-11 13 -1 12 7 18 18 15 24 -4 5 -3 7 2 3 11 -10 47 11 40 22 -3 6 1 7 9 4 11
-4 16 0 16 12 0 9 3 14 7 11 7 -7 53 39 53 54 0 5 3 8 8 8 19 -3 33 2 27 10
-3 5 4 12 15 16 11 4 18 11 15 16 -4 5 1 9 10 9 9 0 13 4 10 10 -3 5 -1 10 4
10 6 0 11 7 11 15 0 8 6 14 13 12 6 -1 11 4 10 11 -2 6 4 12 12 12 14 0 20 12
16 33 -1 5 3 6 9 2 5 -3 10 -2 10 2 0 5 7 18 16 29 8 10 12 13 8 5 -5 -9 -3
-12 5 -7 6 4 9 12 6 17 -4 5 6 20 21 34 15 14 23 25 18 25 -5 0 -1 5 9 11 9 6
15 14 12 20 -6 8 9 13 29 10 5 -1 6 6 2 15 -4 12 -2 15 9 10 8 -3 15 -1 15 4
0 15 33 50 41 44 4 -2 6 4 4 15 -2 13 3 22 16 26 11 4 17 10 14 15 -3 5 3 17
15 27 11 10 20 23 20 31 0 7 4 11 9 8 9 -6 26 22 23 36 -1 4 6 4 15 1 13 -5
15 -1 11 19 -3 19 -1 25 11 24 10 -1 15 6 13 15 -1 9 5 19 13 23 9 3 13 11 9
17 -4 8 -3 9 5 5 6 -4 14 0 17 8 3 9 9 14 13 12 3 -2 12 2 19 10 7 8 10 14 7
14 -4 0 11 18 33 39 22 22 37 42 34 45 -3 3 0 6 7 6 6 0 22 9 34 21 21 19 21
20 2 14 -16 -5 -16 -4 3 7 12 8 19 17 16 21 -4 4 0 7 9 7 16 0 22 12 17 35 -1
6 1 7 5 3 8 -7 35 15 35 28 0 5 11 18 24 29 23 20 26 25 26 46 0 5 5 7 10 4 6
-3 10 1 10 10 0 10 5 13 12 9 8 -5 9 -2 4 12 -4 10 -4 15 -1 12 10 -9 134 117
171 174 17 26 35 44 39 40 5 -4 5 -2 1 5 -6 11 58 83 75 83 5 0 6 7 3 15 -4 8
-1 15 6 15 6 0 9 4 6 8 -3 5 3 18 13 28 10 11 18 27 18 35 0 27 44 108 56 104
7 -2 35 -6 62 -9 73 -7 98 -14 107 -28 6 -10 8 -9 8 2 0 13 1 13 10 0 6 -9 13
-11 18 -5 12 16 49 34 56 27 4 -3 14 -7 24 -8 9 -2 18 -8 20 -13 2 -6 8 -11
13 -11 6 0 8 4 5 8 -3 5 1 9 10 9 10 0 12 -7 8 -20 -5 -17 -4 -18 9 -6 8 8 12
18 9 23 -3 5 0 6 7 2 6 -4 8 -12 5 -18 -5 -7 -2 -9 8 -5 9 3 21 0 27 -6 9 -9
11 -8 6 4 -5 13 -1 15 22 11 25 -5 27 -4 14 12 -12 14 -12 16 3 10 9 -3 16
-11 16 -16 0 -6 8 -2 18 9 9 10 14 14 10 9 -16 -20 -7 -29 11 -12 16 15 20 15
33 2 11 -11 18 -12 26 -4 8 8 13 7 18 -5 3 -9 10 -14 15 -11 5 3 9 0 9 -6 0
-6 4 -9 9 -5 5 3 13 0 17 -6 4 -8 9 -7 15 2 6 11 9 10 15 -4 3 -9 13 -17 21
-17 8 0 12 -4 9 -9 -7 -10 13 -9 30 2 7 4 17 0 24 -8 7 -8 16 -13 20 -10 5 3
6 -5 2 -17 -5 -21 -4 -22 14 -8 10 8 16 10 12 6 -10 -12 21 -35 47 -36 l20 -1
-20 -9 c-17 -7 -16 -9 10 -10 17 -2 33 -2 38 -1 4 0 7 -4 7 -10 0 -7 10 -9 25
-7 14 3 25 2 25 -2 0 -4 13 -6 30 -5 23 1 27 -1 19 -11 -8 -9 -5 -11 10 -7 12
3 21 1 21 -6 0 -6 9 -11 21 -11 14 0 19 -5 16 -14 -3 -8 2 -20 11 -28 15 -12
16 -11 3 5 -10 13 -11 17 -1 17 7 0 19 -8 27 -17 8 -10 12 -13 9 -6 -4 7 1 9
15 6 16 -4 17 -8 7 -14 -9 -6 -9 -9 -1 -9 6 0 15 5 19 11 5 8 10 7 16 -4 5
-10 15 -14 25 -10 11 4 14 3 9 -5 -4 -7 -3 -12 3 -12 5 0 22 -13 37 -29 20
-21 35 -28 59 -27 24 1 31 -2 27 -13 -3 -9 -1 -12 6 -7 7 4 12 3 12 -2 0 -14
54 -39 91 -41 11 0 18 -5 15 -10 -3 -5 1 -12 10 -15 9 -3 12 -2 9 4 -4 7 3 9
19 6 33 -6 48 -15 41 -26 -3 -4 5 -6 17 -3 19 4 20 3 8 -6 -12 -9 -11 -11 8
-11 13 0 20 -4 17 -10 -3 -6 1 -7 9 -4 9 3 16 1 16 -6 0 -7 9 -9 23 -6 12 3
16 3 9 0 -6 -3 -9 -10 -6 -15 3 -6 12 -5 22 3 13 12 14 10 3 -9 -11 -21 -10
-22 13 -13 17 6 27 6 32 -2 4 -7 3 -8 -4 -4 -7 4 -12 2 -12 -3 0 -6 11 -11 25
-11 14 0 25 -4 25 -10 0 -5 5 -10 11 -10 7 0 20 -10 30 -22 12 -13 19 -16 19
-7 0 8 7 4 16 -9 13 -19 18 -21 32 -10 12 10 14 10 8 1 -4 -8 -2 -13 4 -13 6
0 8 -4 5 -10 -3 -6 0 -10 9 -10 8 0 17 6 20 13 3 6 3 2 0 -10 -4 -17 -1 -23
12 -23 10 0 15 -3 11 -6 -8 -8 25 -44 35 -38 5 3 7 2 6 -3 -2 -4 1 -9 6 -10 5
0 13 -9 18 -18 6 -10 16 -14 30 -9 15 4 18 3 13 -6 -5 -8 -4 -11 2 -7 6 4 22
-3 37 -14 15 -12 26 -16 26 -9 0 9 3 10 13 1 8 -6 17 -8 20 -4 4 3 7 1 7 -6 0
-7 4 -9 10 -6 5 3 10 1 10 -5 0 -6 4 -9 9 -6 5 3 12 -1 15 -10 3 -8 10 -12 16
-9 5 3 10 1 10 -5 0 -7 6 -10 13 -7 6 2 23 -4 36 -14 13 -10 27 -16 32 -13 5
3 9 -2 9 -11 0 -9 4 -14 9 -10 5 3 12 1 16 -5 3 -5 17 -10 31 -10 13 0 29 -9
36 -20 7 -11 21 -20 30 -20 10 0 18 -4 18 -10 0 -5 7 -10 15 -10 8 0 15 -4 15
-8 0 -4 20 -16 45 -26 25 -11 45 -23 45 -29 0 -5 7 -6 17 -3 10 4 27 -3 46
-21 17 -15 27 -22 22 -15 -6 11 -3 12 14 3 11 -7 21 -16 21 -22 0 -6 5 -7 10
-4 6 3 10 3 10 -2 0 -14 50 -33 51 -20 0 7 4 2 10 -11 5 -13 13 -20 19 -17 12
7 62 -29 53 -39 -3 -3 4 -6 16 -6 12 0 29 -7 38 -15 8 -8 19 -13 24 -10 5 4 9
1 9 -4 0 -6 9 -11 20 -11 11 0 19 -6 17 -12 -1 -7 5 -13 13 -13 8 0 21 -6 28
-13 8 -7 18 -10 23 -7 5 4 6 -1 3 -9 -4 -11 0 -14 14 -11 12 2 23 -3 26 -11 3
-9 10 -13 14 -10 5 3 16 -4 25 -15 10 -11 22 -17 27 -14 6 3 10 1 10 -5 0 -6
5 -8 10 -5 6 3 10 1 10 -5 0 -6 5 -8 10 -5 5 3 10 1 10 -5 0 -6 5 -8 10 -5 6
3 10 1 10 -4 0 -6 7 -11 15 -11 9 0 18 -7 21 -15 4 -10 13 -13 25 -10 11 4 19
3 18 -2 -3 -20 2 -27 11 -13 8 13 10 12 10 -2 0 -10 7 -18 15 -18 8 0 15 -5
15 -11 0 -5 5 -7 10 -4 6 3 17 0 25 -7 33 -30 45 -38 55 -38 5 0 10 -4 10 -10
0 -5 7 -10 15 -10 8 0 15 -4 15 -10 0 -5 5 -10 11 -10 5 0 7 6 3 12 -4 7 5 0
19 -15 15 -15 32 -25 37 -22 6 3 10 1 10 -4 0 -6 7 -11 16 -11 8 0 12 -4 9
-10 -3 -5 3 -10 14 -10 12 0 21 -4 21 -10 0 -5 7 -10 15 -10 8 0 15 -5 15 -11
0 -5 5 -7 10 -4 6 3 10 1 10 -5 0 -7 7 -10 15 -6 9 3 15 0 15 -9 0 -8 6 -15
13 -15 7 0 23 -9 34 -19 12 -11 24 -17 27 -14 3 4 6 1 6 -5 0 -7 7 -12 16 -12
9 0 12 -5 8 -12 -4 -6 -3 -8 3 -5 11 7 66 -27 57 -36 -4 -3 3 -4 15 -2 12 2
19 0 17 -4 -3 -4 4 -15 15 -24 23 -20 33 -22 23 -4 -4 6 5 -1 19 -16 15 -15
32 -25 37 -22 6 3 10 -1 10 -9 0 -17 34 -39 44 -28 4 3 4 -2 0 -12 -5 -14 -4
-17 4 -12 7 4 12 2 12 -4 0 -6 5 -8 10 -5 6 3 10 0 10 -7 0 -9 3 -9 10 2 8 13
10 12 10 -2 0 -16 17 -23 43 -19 4 0 7 -4 7 -9 0 -6 6 -10 14 -10 8 0 21 -8
28 -17 7 -10 22 -20 33 -21 10 -2 25 -11 32 -20 7 -10 13 -13 13 -8 0 5 9 -1
20 -14 11 -12 17 -28 13 -34 -4 -6 2 -4 12 4 11 9 16 10 11 3 -4 -7 -2 -14 3
-14 6 -1 17 -2 24 -3 6 -1 11 -7 10 -13 -2 -7 6 -10 17 -8 18 3 25 -5 21 -27
0 -5 4 -8 10 -8 5 0 7 -5 3 -12 -4 -7 -3 -8 5 -4 6 4 9 13 5 19 -3 7 2 3 11
-8 9 -11 23 -19 32 -17 10 2 12 -1 7 -9 -5 -9 -2 -10 9 -6 10 4 16 2 14 -6 -1
-7 4 -11 10 -10 7 2 12 -3 10 -10 -1 -6 4 -11 11 -9 10 2 10 -2 2 -18 -6 -11
-7 -20 -1 -20 5 0 12 7 15 16 5 14 9 14 23 3 9 -8 18 -13 21 -11 5 2 12 -18
14 -45 1 -6 7 -9 15 -6 7 3 10 10 7 17 -3 6 2 2 11 -9 9 -11 19 -19 23 -18 4
1 6 -5 4 -14 -2 -8 1 -12 7 -8 6 3 11 -2 11 -12 0 -15 2 -16 10 -3 8 12 10 12
11 -5 l0 -20 9 20 c5 11 9 14 9 7 1 -19 31 -48 32 -30 0 7 5 2 10 -12 8 -20
12 -22 20 -10 8 12 10 10 6 -8 -4 -17 -2 -22 8 -18 8 3 17 1 20 -5 4 -5 12 -6
18 -2 8 4 7 1 -1 -9 -11 -14 -10 -16 9 -11 15 4 20 3 15 -5 -5 -8 -2 -10 8 -6
11 4 16 0 16 -12 0 -16 2 -17 10 -4 8 13 10 12 10 -3 0 -10 5 -15 10 -12 6 3
10 1 10 -5 0 -6 5 -8 10 -5 5 3 10 1 10 -5 0 -6 5 -8 13 -4 7 5 6 0 -3 -11
-10 -13 -11 -16 -2 -11 9 5 19 1 28 -13 8 -12 21 -21 29 -21 7 0 17 -10 20
-21 6 -17 9 -19 16 -8 7 11 10 10 15 -6 8 -30 44 -51 55 -33 7 10 9 10 10 -2
1 -8 1 -19 0 -24 -1 -5 5 -3 14 4 13 11 14 10 8 -5 -5 -14 -3 -17 10 -12 10 4
16 2 14 -6 -1 -7 4 -11 11 -9 8 1 11 -2 8 -7 -4 -5 -2 -12 4 -16 5 -3 10 -1
10 5 0 6 5 8 10 5 6 -4 8 -11 5 -16 -4 -5 2 -9 12 -9 18 -1 65 -30 48 -30 -6
0 6 -9 25 -19 20 -11 34 -26 34 -35 -1 -12 2 -14 10 -7 9 7 16 4 26 -9 7 -10
17 -17 22 -14 4 3 8 0 8 -6 0 -6 5 -8 10 -5 6 3 10 2 10 -4 0 -5 9 -13 20 -16
11 -3 20 -13 20 -21 0 -8 6 -14 13 -14 14 0 106 -82 110 -97 1 -4 7 -7 14 -7
6 1 9 -5 6 -14 -4 -10 -2 -13 5 -8 7 4 12 3 12 -3 0 -5 12 -23 27 -38 14 -15
23 -21 18 -13 -4 8 2 5 14 -8 13 -12 27 -19 34 -15 7 4 6 -1 -2 -10 -8 -10
-11 -20 -7 -24 3 -3 6 -1 6 5 0 6 7 9 15 6 13 -5 13 -9 3 -22 -10 -12 -10 -14
0 -8 7 4 12 2 12 -4 0 -7 7 -10 14 -7 10 4 13 1 9 -9 -4 -10 2 -17 16 -21 11
-3 21 -10 21 -15 0 -5 5 -6 10 -3 5 3 10 -1 10 -9 0 -9 5 -16 10 -16 6 0 10
-5 10 -11 0 -5 -5 -7 -12 -3 -7 4 -8 3 -4 -5 4 -6 12 -9 17 -6 5 4 9 1 9 -4 0
-6 5 -11 11 -11 5 0 7 5 3 12 -4 7 -3 8 5 4 9 -6 9 -12 -1 -24 -7 -10 -8 -14
-4 -10 5 5 15 -1 23 -11 8 -12 22 -18 33 -16 13 2 20 -2 20 -11 0 -8 5 -12 10
-9 6 3 10 -4 10 -17 0 -19 2 -20 11 -8 9 12 10 11 6 -8 -4 -15 -1 -20 6 -15
21 13 37 12 37 -2 0 -8 9 -17 20 -20 11 -4 18 -11 15 -16 -4 -5 -1 -9 5 -9 6
0 8 -4 5 -10 -3 -5 1 -10 10 -10 9 0 13 -4 10 -10 -3 -5 1 -10 10 -10 10 0 13
-5 9 -12 -6 -10 -4 -10 8 0 14 11 16 10 14 -11 -2 -20 1 -24 18 -20 17 4 18 3
6 -6 -11 -8 -12 -11 -2 -11 8 0 10 -5 6 -13 -4 -6 -4 -9 1 -5 10 10 37 -11 29
-23 -3 -5 3 -6 13 -2 10 3 15 3 11 -1 -8 -10 14 -36 25 -29 4 2 7 -1 7 -7 0
-6 10 -15 23 -20 12 -5 16 -9 9 -9 -7 -1 -10 -6 -7 -11 4 -6 11 -8 16 -5 5 3
6 -1 3 -10 -8 -20 15 -48 33 -41 8 3 11 1 8 -4 -3 -6 -1 -10 4 -10 6 0 11 -7
11 -16 0 -10 6 -14 14 -11 11 4 13 1 9 -10 -4 -11 -2 -14 5 -9 7 4 12 2 12 -5
0 -15 40 -50 50 -44 4 3 10 -5 13 -16 3 -12 10 -18 16 -14 7 3 8 0 5 -9 -3 -9
3 -20 15 -28 12 -7 21 -17 21 -22 0 -4 18 -25 40 -46 31 -29 37 -40 27 -50 -8
-8 -8 -11 -1 -7 7 4 14 -2 17 -14 3 -11 15 -23 27 -26 12 -3 19 -11 16 -19 -3
-8 0 -13 7 -11 7 1 11 -4 10 -10 -2 -7 2 -13 7 -13 6 0 10 -5 10 -11 0 -15 26
-39 34 -31 4 3 4 -1 0 -11 -3 -10 -1 -17 6 -17 7 0 9 -8 5 -21 -5 -15 -4 -19
4 -15 6 4 11 1 11 -8 0 -8 5 -16 10 -18 6 -2 12 -13 13 -25 1 -17 4 -19 14
-11 10 8 12 7 7 -6 -3 -9 -1 -16 6 -16 6 0 9 -4 5 -9 -3 -5 2 -16 10 -24 8 -9
15 -23 15 -32 0 -10 5 -13 13 -9 9 6 9 4 -1 -8 -10 -13 -10 -17 3 -22 10 -3
13 -11 9 -18 -4 -7 -4 -10 1 -6 10 10 36 -18 38 -41 0 -11 4 -18 9 -15 4 3 12
-13 19 -35 7 -25 16 -38 23 -34 6 4 4 -2 -4 -12 -8 -10 -10 -16 -3 -12 7 5 17
-1 23 -14 10 -17 9 -20 -2 -14 -7 3 -6 1 3 -7 9 -7 14 -19 11 -27 -3 -10 0
-12 12 -8 9 4 15 3 13 -1 -3 -4 1 -13 9 -20 11 -10 14 -10 14 0 0 10 2 10 9
-1 7 -11 9 -11 14 0 4 10 6 10 6 2 1 -20 19 -15 44 9 15 16 22 35 22 60 0 21
3 38 8 38 4 0 7 7 7 15 0 8 6 15 13 15 8 0 7 4 -3 10 -13 8 -12 10 4 10 16 0
17 2 5 17 -8 9 -9 14 -2 10 7 -5 16 6 24 30 18 53 19 63 6 63 -8 0 -7 4 2 9 8
5 12 18 8 30 -3 12 -1 21 5 21 5 0 7 4 3 9 -3 5 -1 13 5 16 8 5 8 11 0 20 -8
10 -8 15 0 20 6 4 8 15 5 26 -4 10 -3 19 2 19 4 0 9 21 9 48 1 26 5 72 9 102
4 30 7 62 7 70 0 8 6 21 12 29 9 12 8 13 -4 6 -9 -5 -7 1 5 15 11 13 14 20 8
16 -7 -4 -13 -2 -13 3 0 6 5 11 11 11 5 0 8 4 5 9 -4 5 -2 21 4 35 6 17 6 27
-2 32 -8 5 -7 10 3 18 8 6 15 29 16 51 1 22 5 54 8 70 3 17 7 42 7 58 1 15 4
27 8 27 8 0 5 44 -5 60 -5 8 -4 11 2 7 6 -4 10 7 9 28 0 19 -3 35 -6 35 -3 0
-6 9 -6 20 0 11 3 20 6 20 3 0 6 9 6 20 0 11 -3 20 -6 20 -4 0 -7 7 -7 15 0 8
5 15 10 15 5 0 4 6 -2 14 -9 10 -9 16 -1 21 8 5 7 11 -2 23 -7 9 -8 13 -2 9 7
-4 10 39 10 143 0 83 -4 150 -8 150 -4 0 -3 11 2 25 7 17 6 25 -1 25 -8 0 -8
4 0 14 9 10 9 16 1 21 -8 5 -8 11 1 21 7 9 8 14 1 14 -6 0 -11 8 -11 18 0 9
-1 32 -1 50 -1 17 -5 32 -10 32 -5 0 -7 9 -5 20 2 11 -1 20 -6 20 -6 0 -7 5
-4 10 3 6 2 10 -4 10 -5 0 -8 9 -6 20 2 11 0 20 -5 20 -4 0 -7 8 -6 18 2 9 -1
20 -6 23 -5 3 -10 16 -11 27 -1 12 -4 22 -7 22 -3 0 -6 8 -7 18 0 9 -4 28 -7
42 -4 14 -9 41 -12 60 -3 19 -10 37 -15 38 -5 2 -7 8 -4 13 3 5 1 18 -6 30 -6
12 -7 19 -1 16 5 -4 7 4 4 18 -2 14 -7 23 -11 21 -3 -2 -7 8 -8 22 -3 33 -8
52 -17 74 -4 9 -9 25 -11 35 -2 10 -4 19 -5 21 -2 1 -3 5 -4 10 -1 4 -5 13
-10 21 -7 10 -5 12 5 7 10 -6 10 -4 -1 6 -8 7 -17 24 -18 38 -2 14 -8 27 -13
28 -5 2 -9 12 -9 23 0 10 -4 19 -8 19 -4 0 -8 8 -9 18 -2 27 -27 92 -35 92 -5
0 -8 9 -8 20 0 11 -3 20 -7 20 -5 0 -9 12 -10 26 0 15 -5 29 -10 33 -6 3 -12
15 -15 26 -3 11 -9 29 -14 39 -6 15 -4 17 6 11 8 -5 3 7 -10 25 -13 18 -17 30
-9 25 11 -6 12 -5 2 6 -7 7 -13 21 -13 31 0 10 -5 18 -11 18 -5 0 -7 5 -4 10
3 6 2 10 -4 10 -6 0 -8 7 -5 15 4 8 1 15 -6 15 -6 0 -9 4 -5 9 3 5 0 15 -7 23
-7 7 -13 19 -14 26 -2 28 -4 33 -12 28 -4 -2 -9 5 -9 17 -1 12 -7 23 -13 25
-5 2 -10 12 -10 23 0 10 -5 19 -12 19 -6 0 -9 3 -5 6 3 4 0 19 -9 35 -8 16
-11 29 -7 29 5 0 1 5 -7 10 -8 5 -15 15 -15 22 -1 7 -7 12 -14 10 -7 -1 -10 2
-6 7 7 12 -19 65 -46 94 -17 19 -24 38 -20 60 0 4 -4 7 -9 7 -6 0 -10 9 -10
20 0 10 -6 23 -14 27 -14 8 -16 12 -16 34 0 5 -5 7 -12 3 -7 -5 -8 -3 -3 6 5
8 2 18 -9 26 -10 7 -17 15 -17 18 3 21 0 26 -11 20 -7 -5 -8 -3 -4 5 5 7 0 19
-10 27 -11 9 -13 13 -4 9 12 -5 12 -4 -1 7 -9 7 -14 19 -12 25 3 7 -2 16 -11
19 -9 3 -16 12 -16 19 0 8 -8 21 -17 31 -10 10 -18 20 -18 23 0 3 -3 5 -7 4
-4 -2 -5 4 -2 12 4 8 1 15 -5 15 -6 0 -11 6 -11 13 0 7 -9 19 -20 27 -11 8
-20 20 -20 27 0 7 -6 13 -12 13 -10 0 -9 3 1 9 11 7 9 10 -8 16 -12 3 -19 11
-16 16 4 5 2 9 -4 9 -11 0 -27 39 -22 55 1 6 0 7 -4 3 -9 -9 -35 16 -35 33 0
7 -15 29 -32 48 -25 26 -27 31 -8 17 14 -11 9 -3 -12 17 -20 19 -34 38 -31 41
3 2 -4 11 -16 18 -12 7 -21 19 -21 26 0 7 -5 10 -10 7 -5 -3 -10 -1 -10 5 0
17 -26 40 -35 32 -5 -4 -5 -1 -1 5 4 8 -4 23 -20 38 -15 14 -23 25 -19 25 4 0
-2 9 -14 19 -13 11 -20 24 -17 30 4 5 -3 7 -16 3 -11 -3 -19 -1 -16 4 6 12
-28 44 -38 36 -4 -4 -4 -2 -1 4 4 7 -3 24 -15 40 -13 15 -17 25 -10 20 6 -4
12 -2 12 3 0 6 6 10 13 8 6 -1 11 3 10 9 -1 6 4 11 12 11 8 0 11 -5 8 -11 -3
-6 6 0 22 14 16 14 24 18 19 10 -7 -13 -4 -12 16 1 14 9 33 15 43 13 9 -1 15
2 11 7 -3 5 6 9 20 9 14 0 28 5 32 11 3 6 15 9 25 6 12 -3 17 -1 12 6 -4 6 0
8 10 4 10 -4 20 0 26 11 8 13 10 13 11 3 0 -11 4 -9 15 5 11 14 14 15 15 4 0
-10 3 -11 8 -4 9 13 43 28 60 25 6 -1 12 3 12 9 0 6 5 8 10 5 6 -3 10 0 10 7
0 9 3 9 10 -2 6 -9 10 -10 10 -3 0 6 16 17 35 24 19 7 35 17 35 22 0 5 9 7 20
4 11 -3 18 -1 14 4 -5 8 9 13 29 10 4 0 7 4 7 10 0 5 5 7 10 4 6 -3 10 -1 10
4 0 6 9 11 21 11 11 0 17 5 14 10 -3 6 3 10 14 10 12 0 21 5 21 11 0 6 6 9 14
6 8 -3 17 1 20 10 4 9 14 13 26 10 13 -3 20 0 20 10 0 10 6 13 16 9 9 -3 24 4
38 19 17 18 25 22 34 13 9 -9 12 -9 12 0 0 7 6 12 13 12 22 0 76 30 87 48 7
12 9 13 10 3 0 -9 10 -4 25 13 14 15 25 24 25 20 0 -3 7 -1 15 6 8 6 19 9 24
6 5 -4 14 1 19 9 4 9 18 17 30 18 14 1 18 5 12 12 -7 8 -1 11 20 10 21 -1 31
4 36 17 3 10 10 18 15 18 6 0 7 -5 4 -10 -4 -6 10 1 30 15 21 13 42 22 48 18
7 -4 8 0 3 13 -4 10 -4 15 0 12 8 -9 64 19 64 32 0 6 3 9 8 8 15 -3 42 15 35
25 -3 5 -1 7 4 4 13 -8 55 27 46 37 -4 4 0 4 10 0 11 -4 17 -1 17 7 0 7 3 10
6 6 3 -3 15 3 27 13 11 11 24 17 29 14 5 -3 7 -1 6 4 -2 6 0 9 4 9 4 -1 14 7
23 18 9 11 14 13 10 5 -4 -8 1 -6 10 5 9 11 21 19 27 17 6 -2 8 4 5 12 -4 9 0
13 11 12 9 -2 25 6 34 16 9 11 20 19 25 20 4 0 7 4 5 10 -1 5 2 7 7 4 5 -4 14
1 19 10 6 10 16 15 25 11 9 -3 19 -1 23 5 5 7 2 8 -7 3 -8 -4 -3 3 11 16 14
14 31 23 39 20 10 -3 12 0 6 9 -6 10 -4 12 10 6 16 -6 16 -4 4 11 -9 11 -10
14 -1 9 7 -4 12 -2 12 4 0 6 5 8 10 5 6 -3 10 1 10 9 0 9 5 16 11 16 5 0 8 4
5 9 -6 9 22 26 38 22 5 -1 3 6 -5 15 -9 12 -9 15 -1 10 6 -4 12 -2 12 3 0 6 6
10 13 8 6 -1 11 4 10 10 -2 7 4 13 12 13 8 0 16 5 16 10 1 6 2 14 3 19 0 5 5
13 10 18 6 5 6 2 1 -7 -5 -10 -1 -8 13 4 24 21 29 31 10 20 -9 -5 -9 -3 1 9 7
9 18 14 25 10 6 -4 6 0 -2 9 -11 13 -10 16 5 14 12 -1 17 5 15 17 -2 9 2 17 9
17 6 0 8 7 5 16 -3 8 -2 12 3 9 5 -3 12 -1 16 5 3 5 0 10 -7 11 -7 0 -1 5 15
11 15 5 27 14 27 19 0 6 -5 7 -12 3 -7 -5 -8 -3 -4 5 5 7 14 10 21 7 7 -2 16
2 19 10 4 10 2 12 -6 8 -7 -4 -8 -3 -4 4 4 7 15 12 24 12 15 0 15 2 2 10 -13
8 -13 10 2 10 23 0 32 18 18 35 -8 10 -8 15 1 21 8 4 9 3 5 -4 -4 -7 -3 -12 2
-12 5 0 14 11 20 25 6 14 16 25 22 25 5 0 9 6 7 13 -1 7 6 11 17 9 11 -2 15 1
11 7 -5 10 7 15 27 12 4 0 10 10 14 24 3 14 10 22 15 19 5 -3 9 0 9 6 0 6 4 8
10 5 6 -3 7 1 4 10 -4 10 -2 15 7 13 8 -2 13 3 11 10 -1 8 1 11 6 8 5 -3 20 7
33 22 18 20 19 22 3 9 -11 -9 -24 -17 -29 -17 -4 0 10 14 31 31 22 17 38 36
36 41 -1 5 1 7 6 4 11 -7 74 39 65 47 -3 4 3 7 15 7 12 0 22 5 22 11 0 5 -5 7
-12 3 -7 -4 -8 -3 -4 4 4 7 13 12 20 12 7 0 19 11 26 25 8 14 18 24 24 22 14
-5 56 34 56 52 0 14 1 14 10 1 8 -13 10 -13 10 2 0 11 6 16 20 13 11 -2 19 1
17 8 -1 7 4 11 11 9 8 -1 11 2 7 8 -3 5 -1 10 5 10 6 0 8 4 5 10 -3 5 0 7 7 5
8 -3 22 2 33 10 19 16 19 16 -2 5 -34 -16 -27 -3 7 15 17 9 35 13 40 10 6 -3
7 1 4 9 -4 10 -1 16 9 16 8 0 22 10 31 23 9 12 14 16 11 10 -4 -8 -1 -11 9 -7
9 3 13 10 10 15 -3 5 4 9 15 9 15 0 19 4 14 17 -4 11 -3 14 5 9 12 -7 52 27
52 45 0 5 4 8 8 5 9 -5 8 41 -1 51 -4 3 -7 15 -7 25 0 11 -4 17 -8 14 -10 -6
-43 30 -35 38 3 3 -4 3 -17 1 -15 -3 -20 0 -17 9 3 7 0 13 -6 13 -21 1 -42 8
-48 16 -3 4 -15 9 -27 10 -11 0 -18 5 -16 9 3 4 -2 8 -10 8 -9 0 -16 6 -16 13
0 8 -4 7 -10 -3 -7 -11 -10 -11 -10 -2 0 7 -5 10 -10 7 -6 -3 -13 1 -16 9 -3
9 -15 16 -26 16 -12 0 -17 4 -12 12 5 7 3 8 -6 3 -7 -4 -16 -2 -21 6 -7 11 -9
11 -9 1 0 -7 -5 -10 -10 -7 -6 4 -7 12 -4 18 4 7 4 9 -1 5 -4 -4 -15 -2 -23 5
-13 10 -14 9 -7 -3 5 -10 1 -9 -13 3 -11 11 -26 16 -31 12 -6 -3 -11 1 -11 9
0 12 -33 31 -50 28 -3 0 -9 6 -13 14 -4 8 -15 14 -22 14 -8 0 -15 4 -15 10 0
5 -3 9 -7 9 -21 -3 -33 2 -33 16 0 8 -5 15 -11 15 -5 0 -7 -6 -3 -12 5 -7 -5
-3 -20 10 -16 12 -32 19 -37 16 -5 -3 -8 0 -7 8 2 7 -3 12 -9 11 -7 -2 -13 1
-13 6 0 6 -9 8 -19 6 -13 -2 -18 1 -15 9 3 8 -3 16 -13 20 -31 11 -63 33 -57
38 3 4 -4 9 -15 13 -12 3 -19 10 -16 15 3 4 -2 11 -11 14 -10 4 -13 2 -8 -7 4
-6 -7 2 -24 20 -16 17 -32 29 -36 26 -3 -3 -8 2 -12 11 -3 9 -10 14 -14 11 -4
-3 -11 2 -14 11 -3 8 -10 12 -16 9 -5 -3 -10 1 -10 10 0 9 -4 13 -10 10 -5 -3
-10 -1 -10 5 0 6 -4 9 -9 6 -5 -3 -11 1 -15 9 -3 8 -12 15 -21 15 -8 0 -15 5
-15 10 0 6 -7 10 -16 10 -8 0 -13 4 -9 9 3 6 -3 8 -14 6 -11 -2 -22 3 -25 11
-3 8 -13 14 -21 14 -10 0 -13 5 -9 12 5 8 2 9 -9 5 -11 -4 -17 -1 -17 8 0 12
-38 32 -48 26 -2 -1 -12 7 -21 18 -10 11 -21 18 -25 14 -3 -3 -6 -1 -6 5 0 7
-6 12 -13 12 -7 0 -27 14 -46 30 -37 34 -86 62 -94 54 -3 -3 -8 4 -12 15 -3
12 -10 19 -15 16 -5 -3 -15 2 -23 10 -9 8 -23 15 -32 15 -9 0 -13 5 -10 10 3
6 -1 10 -11 10 -9 0 -24 8 -33 18 -16 19 -50 36 -63 34 -5 -1 -8 5 -8 13 0 8
-3 14 -7 14 -20 -3 -34 2 -28 11 4 6 -6 10 -22 10 -23 0 -25 2 -13 11 12 9 11
10 -7 6 -13 -3 -23 -2 -23 3 0 4 -7 11 -16 14 -9 3 -12 2 -8 -5 3 -6 -3 -5
-15 3 -12 7 -21 16 -21 20 0 5 -7 8 -15 8 -8 0 -15 6 -15 13 0 9 -2 9 -9 -1
-7 -11 -9 -11 -14 2 -4 9 -14 13 -26 11 -13 -2 -26 4 -36 18 -8 12 -18 21 -20
20 -13 -7 -35 -2 -30 7 3 6 3 10 -2 11 -30 3 -48 9 -51 19 -2 5 -8 8 -13 4 -5
-3 -9 -1 -9 4 0 5 -13 15 -30 22 -16 7 -30 17 -30 22 0 5 -4 7 -9 4 -5 -3 -14
1 -21 9 -7 8 -19 15 -28 15 -8 0 -21 8 -29 18 -8 9 -11 11 -8 4 6 -11 3 -11
-13 -1 -12 7 -18 18 -14 24 3 5 -3 3 -13 -5 -11 -9 -16 -10 -11 -2 5 8 0 12
-13 12 -13 0 -21 7 -21 18 0 9 -4 13 -8 7 -8 -11 -44 -17 -38 -6 7 10 -19 28
-37 25 -9 -1 -17 4 -17 11 0 7 -7 16 -16 19 -10 4 -13 2 -8 -7 6 -9 5 -9 -8 0
-8 7 -18 10 -21 6 -4 -3 -7 -1 -7 5 0 7 -9 12 -20 12 -11 0 -20 6 -20 13 0 8
-4 7 -10 -3 -5 -8 -10 -10 -10 -4 0 16 -45 34 -59 23 -6 -5 -9 -6 -6 -3 2 4
-2 13 -10 20 -15 15 -29 19 -21 6 3 -5 -1 -9 -9 -9 -8 0 -12 4 -9 9 3 4 -2 8
-10 8 -9 0 -16 5 -16 11 0 8 -4 8 -14 0 -10 -9 -16 -8 -26 4 -7 9 -19 14 -26
11 -7 -3 -15 1 -17 8 -3 8 -19 12 -41 10 -24 -1 -34 1 -29 9 4 6 0 8 -10 4 -9
-3 -18 1 -21 10 -5 12 -9 13 -21 3 -11 -9 -15 -9 -15 -1 0 7 -4 10 -9 6 -5 -3
-12 -1 -16 5 -3 5 -13 10 -21 10 -8 0 -12 -4 -9 -10 3 -6 -1 -7 -9 -4 -9 3
-16 10 -16 15 0 5 -14 7 -31 5 -19 -2 -32 1 -36 10 -3 10 -10 11 -23 4 -9 -5
-20 -6 -24 -3 -8 8 -41 15 -78 17 -16 0 -28 4 -28 7 0 4 -13 9 -30 11 -16 3
-30 2 -30 -2 0 -3 -9 -6 -19 -6 -11 0 -19 4 -18 9 1 5 -6 11 -15 12 -10 2 -18
-2 -18 -8 0 -8 -3 -7 -9 2 -6 9 -10 10 -16 2 -5 -9 -10 -9 -20 -1 -8 6 -19 10
-27 9 -37 -5 -89 2 -83 11 4 6 -4 6 -21 0 -20 -8 -29 -8 -34 1 -6 8 -13 8 -30
-1 -18 -9 -24 -9 -30 0 -6 9 -9 9 -15 0 -6 -9 -10 -9 -16 1 -7 11 -9 11 -9 1
0 -8 -5 -10 -12 -6 -7 5 -27 9 -44 9 -17 1 -36 5 -44 10 -9 5 -11 4 -6 -3 11
-19 -5 -14 -21 6 -7 9 -13 13 -12 7 3 -21 -2 -23 -31 -15 -21 6 -30 5 -30 -3
0 -8 -3 -8 -11 0 -6 6 -18 9 -27 6 -11 -5 -13 -3 -7 8 7 12 6 12 -11 -1 -10
-8 -16 -11 -12 -6 8 9 -15 36 -30 36 -5 0 -9 7 -9 15 0 11 4 12 14 3 11 -8 12
-7 7 6 -3 9 -1 16 5 16 6 0 10 6 9 13 -2 6 2 11 9 10 7 -2 17 6 23 17 6 11 15
18 21 15 5 -4 12 1 15 9 3 9 10 14 14 11 4 -3 11 2 14 11 4 9 13 14 22 10 8
-3 13 -2 11 2 -3 4 1 13 9 20 8 7 14 10 14 7 0 -3 6 0 14 7 8 7 11 17 8 22 -3
5 0 6 6 2 6 -3 18 2 28 11 10 10 22 18 28 18 6 1 10 6 9 12 -2 7 6 15 17 18
11 4 18 11 15 16 -4 5 1 9 9 9 9 0 16 5 16 11 0 5 4 8 9 5 5 -3 12 2 15 11 6
15 8 15 16 3 8 -12 10 -10 10 8 0 13 6 22 15 22 8 0 15 6 15 14 0 7 8 20 18
27 15 13 16 12 3 -3 -9 -12 -10 -18 -2 -18 6 0 11 4 11 10 0 5 10 19 23 31 12
12 15 19 7 15 -8 -4 -6 -1 4 8 10 8 23 13 29 9 6 -3 7 -1 3 6 -8 12 18 44 28
34 6 -6 10 13 6 32 -1 5 1 7 4 4 4 -3 52 39 109 95 56 55 105 100 110 98 5 -1
6 2 2 8 -3 5 -1 10 5 10 6 0 8 5 5 10 -3 6 1 10 10 10 11 0 15 5 11 15 -3 8
-1 15 5 15 5 0 20 10 32 21 12 12 15 18 7 14 -8 -4 1 7 20 25 19 18 27 27 17
20 -15 -11 -17 -10 -11 3 3 8 12 18 21 21 8 4 13 13 10 21 -4 10 -1 12 10 8
10 -4 14 -2 10 4 -4 6 -4 13 1 15 4 1 18 20 31 41 13 20 27 34 33 31 7 -4 8
-2 4 4 -4 7 -3 12 3 12 5 0 8 9 6 19 -3 15 1 18 13 14 9 -3 14 -3 10 2 -8 8
28 45 44 45 4 0 7 3 6 8 -1 4 8 23 20 42 12 19 22 31 22 26 0 -5 14 10 31 33
17 24 28 45 25 48 -2 3 7 16 22 30 15 13 21 22 15 18 -9 -4 -11 -1 -7 10 4 9
12 14 20 11 8 -3 11 2 9 14 -2 10 3 26 11 37 9 10 12 12 8 4 -4 -9 -3 -12 4
-7 6 3 9 18 6 31 -2 14 -1 24 3 23 5 -2 8 -1 9 2 0 3 12 18 27 34 15 16 25 31
23 34 -3 2 2 11 10 19 8 8 11 20 7 26 -3 7 -3 9 2 5 8 -8 34 20 35 37 0 6 -5
3 -10 -5 -6 -9 -10 -10 -10 -3 0 6 5 15 10 18 6 4 7 12 3 18 -4 7 2 5 12 -3
11 -9 16 -10 11 -2 -4 6 -3 12 2 12 6 0 13 11 16 25 4 14 11 25 17 25 6 0 7 5
4 10 -3 6 1 10 10 10 9 0 14 4 11 9 -3 5 7 21 22 37 15 15 22 24 15 21 -6 -4
-14 -3 -18 3 -3 5 1 10 9 10 8 0 18 9 21 20 3 11 11 20 16 20 5 0 9 6 9 13 0
7 8 24 17 37 10 14 19 32 20 40 1 8 9 20 18 26 12 9 13 13 3 17 -9 4 -7 6 4 6
11 1 15 6 12 16 -4 8 -1 15 5 15 6 0 8 7 5 15 -4 8 1 17 9 21 9 3 14 11 11 19
-3 7 2 20 11 29 9 9 13 22 9 28 -4 7 -3 10 1 5 11 -9 36 63 28 77 -4 6 0 6 8
-1 12 -10 15 -7 17 15 1 15 10 33 20 40 9 7 16 22 14 34 -2 11 1 18 6 14 6 -3
13 1 16 10 9 24 7 31 -4 14 -7 -10 -10 -11 -10 -2 0 7 6 15 14 18 9 3 12 12 9
21 -4 11 -2 14 5 9 7 -4 12 -2 12 4 0 7 9 25 21 41 11 16 18 36 15 44 -3 8 -2
14 2 12 4 -1 8 3 10 8 2 6 10 21 19 34 8 13 10 20 4 17 -7 -4 -9 -1 -5 8 3 8
12 17 20 20 9 4 12 11 7 18 -11 18 -13 39 -3 33 5 -3 11 13 15 35 4 22 11 38
16 35 5 -4 6 1 3 9 -3 9 -1 16 6 16 6 0 9 4 6 9 -3 5 1 11 9 15 8 3 15 15 15
26 0 11 5 20 10 20 6 0 10 11 10 25 0 14 5 25 11 25 6 0 9 7 5 15 -3 8 0 15 6
15 6 0 8 3 5 6 -3 4 -2 15 3 25 7 12 6 19 -3 22 -6 3 -4 6 7 6 16 1 17 3 5 18
-8 9 -9 14 -3 10 7 -4 18 1 25 10 8 10 9 14 2 10 -6 -4 -14 -3 -17 2 -3 5 4
11 17 15 18 5 20 8 7 16 -11 7 -11 10 -2 10 7 0 10 5 7 10 -3 6 -1 10 5 10 6
0 9 4 5 9 -3 5 0 13 6 16 5 4 8 13 5 21 -3 9 1 14 12 14 15 0 15 2 2 10 -12 7
-12 10 -1 10 7 0 11 6 7 15 -3 8 -1 15 4 15 5 0 7 9 5 20 -2 11 1 20 6 20 6 0
7 5 4 10 -3 6 -1 10 4 10 6 0 11 5 11 11 0 5 -6 7 -12 4 -7 -4 -6 -1 3 7 9 7
14 19 11 27 -3 9 0 11 7 6 8 -5 11 -1 9 11 -2 11 2 18 9 17 9 -2 10 4 3 22 -7
18 -5 28 5 39 11 11 12 15 2 19 -8 3 -6 10 7 26 20 22 20 22 0 15 -17 -7 -18
-6 -5 10 8 9 14 35 13 56 -1 21 3 42 8 45 6 3 10 12 10 18 0 7 -4 6 -10 -3 -5
-8 -10 -10 -10 -4 0 6 3 14 7 18 4 4 9 19 11 34 2 14 9 33 15 41 10 12 9 13
-3 6 -13 -8 -13 -7 -1 8 7 9 10 17 5 17 -5 0 -2 5 6 10 13 8 13 10 1 10 -11 0
-10 4 4 13 12 9 14 16 7 21 -6 4 -9 13 -6 21 4 8 11 12 18 8 6 -4 5 1 -3 10
-10 13 -10 17 -1 17 9 0 9 4 -1 17 -8 9 -9 14 -3 10 15 -9 26 17 13 30 -7 7
-5 16 6 27 12 12 13 16 3 16 -10 0 -9 3 2 10 9 6 10 10 3 10 -8 0 -9 9 -4 28
4 15 6 33 4 40 -3 7 1 20 9 29 10 13 10 17 1 20 -7 3 -13 9 -13 14 0 6 4 8 9
5 5 -3 11 1 15 9 3 8 2 14 -2 14 -19 -3 -25 2 -12 11 13 8 13 10 1 10 -11 0
-10 4 5 16 10 8 13 13 7 9 -8 -4 -13 0 -13 10 0 9 4 14 9 11 4 -3 6 6 3 21 -4
20 -2 24 9 18 11 -7 12 -6 2 6 -10 12 -10 18 -1 27 9 9 9 12 -2 12 -12 0 -13
2 -1 9 8 5 9 11 3 15 -12 7 -4 46 10 46 6 0 5 7 -2 15 -9 11 -9 15 -1 15 7 0
9 5 4 13 -10 17 -13 38 -3 32 12 -8 9 49 -4 57 -7 5 -7 8 0 8 6 0 9 19 6 51
-3 41 -1 50 10 43 10 -6 11 -5 1 8 -7 8 -9 18 -5 22 10 11 10 196 0 196 -5 0
-4 10 3 21 9 17 8 20 -3 13 -11 -6 -11 -5 1 9 9 11 10 17 2 17 -6 0 -11 5 -11
11 0 5 3 8 8 6 4 -3 7 55 7 129 0 74 -4 134 -8 134 -5 0 -4 7 4 16 7 9 9 18 3
22 -12 9 -14 42 -3 42 5 0 4 12 -1 26 -13 32 -13 37 1 28 8 -5 8 -1 0 14 -7
14 -8 23 -1 27 5 3 10 12 10 18 0 7 -4 6 -10 -3 -8 -12 -10 -10 -7 10 1 14 6
31 11 39 6 10 5 12 -2 7 -8 -5 -11 3 -8 24 2 20 -2 34 -13 40 -9 5 -11 10 -5
10 14 0 16 50 2 50 -5 0 -6 5 -2 12 4 7 9 24 10 38 1 14 0 19 -3 13 -2 -7 -9
-13 -14 -13 -6 0 -7 5 -4 10 4 6 1 18 -7 27 -9 12 -9 15 0 9 6 -4 12 -2 12 3
0 6 -5 11 -11 11 -5 0 -7 5 -4 10 4 6 12 7 18 3 7 -3 3 4 -8 16 -16 19 -17 25
-6 43 7 11 8 17 2 14 -5 -4 -12 -2 -16 4 -3 5 -1 10 5 10 6 0 8 5 5 10 -4 6
-12 7 -18 3 -7 -4 -6 0 2 10 11 13 11 17 1 17 -8 0 -10 3 -7 6 3 4 2 16 -4 27
-8 14 -8 18 0 13 8 -5 8 0 1 18 -7 19 -6 26 2 26 7 0 4 6 -7 13 -11 9 -14 16
-7 20 12 8 -6 77 -20 77 -4 0 -8 5 -8 11 0 5 5 7 11 3 6 -3 3 6 -7 22 -11 15
-14 25 -8 21 7 -4 10 2 6 18 -2 14 -9 25 -14 25 -6 0 -6 6 1 14 9 11 9 16 1
21 -7 4 -10 15 -7 25 4 14 1 17 -12 13 -13 -5 -12 -2 4 17 11 13 15 20 9 17
-16 -10 -28 25 -12 35 9 5 9 8 2 8 -7 0 -15 7 -18 16 -4 9 -2 13 5 8 8 -4 7 0
0 15 -7 12 -9 26 -6 31 3 5 1 11 -5 15 -5 3 -10 17 -10 31 0 13 -6 24 -12 24
-9 0 -9 3 1 9 12 8 12 12 -2 25 -9 9 -14 23 -11 31 4 8 2 15 -4 15 -5 0 -8 11
-7 25 2 15 -3 29 -13 35 -11 6 -12 10 -4 10 8 0 6 8 -7 22 -14 14 -18 25 -11
33 5 7 7 15 3 19 -7 6 -13 29 -15 53 -1 7 -5 10 -10 7 -5 -4 -8 2 -6 12 2 11
-2 18 -8 17 -6 -1 -11 4 -11 12 0 8 3 12 7 10 3 -2 7 5 7 16 1 15 -1 18 -10
10 -10 -7 -13 -4 -14 12 -1 12 3 25 10 29 8 5 6 8 -6 8 -10 0 -15 5 -12 10 3
6 2 10 -3 10 -6 0 -8 9 -5 20 3 11 1 20 -5 20 -5 0 -8 14 -7 30 1 17 -3 36 -9
43 -14 14 -16 19 -16 48 0 13 -4 18 -12 13 -6 -4 -8 -3 -5 3 9 15 -47 126 -58
116 -5 -4 -3 0 4 10 12 15 11 17 -5 17 -14 0 -16 2 -6 9 11 7 11 11 -2 24 -9
8 -16 20 -16 26 0 6 -6 11 -12 11 -9 0 -8 4 2 10 12 7 12 10 1 10 -7 0 -11 6
-7 15 3 8 1 15 -4 15 -5 0 -7 7 -4 15 4 8 1 15 -6 15 -10 0 -10 3 0 15 10 12
10 15 -3 15 -10 0 -15 7 -12 20 2 13 -2 20 -11 20 -8 0 -13 4 -10 9 7 11 -28
84 -36 75 -4 -3 -4 3 -1 15 3 13 1 21 -6 21 -7 0 -9 5 -6 10 3 6 1 10 -5 10
-6 0 -8 5 -5 10 3 6 2 10 -3 10 -5 0 -17 16 -26 35 -9 19 -21 37 -26 40 -6 4
-8 10 -5 15 3 5 -4 25 -15 45 -11 19 -20 42 -20 50 0 8 -4 15 -8 15 -5 0 -9 7
-10 15 -1 8 -3 22 -4 30 -1 8 -7 15 -13 15 -7 0 -11 13 -10 31 1 23 -3 33 -19
39 -13 6 -15 9 -6 10 12 0 12 2 2 9 -8 4 -13 11 -13 15 3 23 0 36 -9 31 -5 -3
-16 8 -25 25 -8 16 -12 30 -8 30 5 0 0 5 -10 11 -15 9 -16 13 -5 27 11 14 10
15 -7 8 -11 -4 -16 -4 -12 0 4 4 2 13 -4 21 -6 7 -8 13 -4 13 4 0 -7 14 -25
30 -18 17 -26 30 -20 30 7 0 3 9 -9 19 -16 14 -18 21 -9 24 7 3 2 6 -12 6 -14
1 -20 5 -15 9 15 11 17 32 2 29 -7 -1 -11 6 -9 17 2 11 -1 15 -8 11 -7 -4 -10
0 -8 11 2 11 -2 18 -9 17 -7 -2 -10 3 -7 11 3 7 -1 20 -8 27 -15 15 -32 50
-30 61 1 4 -5 5 -14 1 -9 -3 -14 0 -12 8 2 8 -2 13 -9 12 -7 -2 -10 4 -7 12 4
8 1 15 -5 15 -6 0 -10 3 -10 8 4 18 -24 71 -34 65 -6 -3 -7 -1 -3 6 9 14 -12
43 -25 35 -5 -3 -6 1 -3 9 3 8 -2 21 -10 30 -8 8 -12 17 -9 21 4 3 1 6 -5 6
-6 0 -13 9 -17 20 -3 11 -9 19 -13 17 -4 -1 -8 3 -10 8 -2 6 -13 15 -25 22
-13 8 -16 12 -8 13 11 0 9 4 -5 15 -10 8 -14 15 -9 15 6 0 3 5 -5 10 -8 5 -15
13 -15 19 0 5 -11 19 -25 31 -14 12 -19 19 -12 15 19 -10 14 6 -10 26 -11 11
-18 19 -14 19 4 0 -7 15 -26 34 -18 19 -36 32 -40 29 -5 -2 -8 1 -8 6 0 6 -16
27 -35 48 -19 20 -32 39 -30 43 2 3 -5 13 -16 20 -10 8 -19 20 -19 27 0 7 -4
13 -10 13 -5 0 -10 6 -10 13 0 7 -9 19 -19 27 -11 7 -18 17 -16 20 3 4 -4 15
-15 25 -11 10 -17 22 -14 27 3 4 2 8 -3 7 -22 -4 -31 3 -37 27 -6 22 -9 24
-23 12 -10 -8 -14 -8 -10 -1 4 7 -3 22 -17 36 -14 14 -22 28 -19 31 4 3 1 6
-6 6 -7 0 -10 4 -6 9 3 6 -4 8 -16 6 -18 -4 -19 -2 -8 13 7 9 10 14 5 10 -12
-10 -39 20 -30 33 4 7 3 9 -3 6 -6 -4 -14 0 -17 9 -3 8 -11 12 -16 9 -6 -4 -9
-3 -8 2 4 12 -28 54 -35 46 -6 -5 -8 0 -7 22 1 10 -49 55 -60 55 -6 0 -8 5 -5
10 3 6 1 10 -5 10 -6 0 -8 4 -5 10 3 5 0 7 -8 4 -9 -3 -17 3 -20 17 -4 14 -11
20 -21 16 -9 -4 -15 -3 -15 1 3 20 -2 32 -13 29 -7 -1 -12 4 -10 12 2 8 -3 11
-13 8 -10 -4 -15 -1 -15 11 0 15 -2 15 -10 2 -9 -13 -10 -13 -11 0 -1 8 -1 19
0 24 1 5 -5 4 -13 -4 -9 -7 -17 -10 -17 -6 -1 3 -2 9 -3 14 -3 13 -53 62 -64
62 -6 0 -14 4 -17 10 -4 6 1 7 12 4 15 -6 15 -4 -2 9 -11 9 -25 17 -31 17 -5
0 -19 7 -30 16 -10 8 -12 13 -4 9 8 -4 6 0 -4 9 -10 8 -22 13 -26 11 -5 -3
-11 2 -14 11 -3 8 -10 12 -16 9 -6 -4 -7 1 -3 11 4 12 3 15 -5 10 -7 -4 -12
-1 -12 9 0 9 -4 13 -10 10 -9 -6 -15 8 -11 29 1 5 -5 6 -14 3 -8 -4 -15 -2
-15 3 0 5 -12 21 -26 35 -21 21 -29 24 -36 13 -8 -10 -9 -9 -5 3 6 18 -46 73
-57 62 -3 -4 -6 1 -6 9 0 18 -27 31 -42 21 -6 -3 -8 -2 -5 4 4 6 -1 19 -9 29
-9 10 -13 13 -9 7 3 -7 1 -13 -4 -13 -6 0 -11 6 -11 14 0 8 -7 17 -16 20 -9 3
-12 2 -9 -5 4 -5 -17 3 -47 18 -29 15 -54 31 -56 36 -2 4 -10 7 -18 7 -8 0
-14 5 -14 10 0 6 -9 10 -19 10 -11 0 -23 9 -26 20 -4 11 -11 17 -17 14 -5 -3
-16 3 -24 15 -9 12 -20 19 -25 16 -5 -4 -9 -1 -9 6 0 7 -3 9 -7 6 -3 -4 -17 0
-30 8 -13 9 -28 13 -33 10 -6 -3 -10 1 -10 9 0 10 -9 16 -26 16 -17 0 -23 4
-18 13 6 9 4 9 -8 -1 -14 -11 -18 -10 -28 7 -6 12 -18 21 -27 21 -9 0 -22 8
-30 18 -8 9 -12 12 -9 6 3 -7 -1 -14 -9 -17 -10 -4 -12 -1 -8 11 6 14 4 15 -9
4 -18 -15 -34 0 -22 21 5 9 4 9 -6 0 -11 -10 -18 -9 -34 5 -11 9 -16 11 -12 5
4 -7 2 -13 -3 -13 -6 0 -11 6 -11 14 0 9 -7 13 -20 11 -11 -2 -20 1 -20 7 0 6
-9 8 -20 5 -10 -3 -19 -2 -18 2 2 19 -3 24 -12 11 -6 -10 -10 -11 -10 -2 0 7
-13 12 -30 12 -17 0 -30 5 -30 13 0 8 -4 7 -10 -3 -8 -12 -10 -12 -10 -1 0 8
-7 11 -20 8 -11 -3 -18 -2 -15 3 3 4 -2 10 -10 14 -8 3 -17 1 -21 -5 -4 -6
-13 -4 -24 6 -14 13 -19 13 -23 3 -4 -11 -6 -11 -6 0 -1 7 -5 10 -11 7 -5 -3
-10 -1 -10 4 0 6 -9 11 -20 11 -11 0 -20 4 -20 8 0 4 -14 9 -32 10 -18 2 -35
6 -38 10 -3 4 -23 8 -45 10 -22 2 -45 8 -51 13 -6 5 -13 6 -16 4 -3 -3 -17 -1
-32 5 -20 7 -25 7 -20 -2 4 -7 3 -8 -5 -4 -6 4 -32 9 -57 11 -25 2 -51 7 -57
12 -7 5 -27 8 -44 8 -18 0 -33 3 -33 8 0 4 -4 6 -9 2 -5 -3 -12 -1 -16 4 -3 5
-14 8 -25 6 -11 -2 -20 0 -20 4 0 6 -41 12 -107 15 -13 1 -23 3 -23 6 0 6 -24
9 -65 10 -11 1 -23 6 -27 13 -5 8 -8 9 -8 1 0 -8 -11 -9 -37 -4 -20 5 -41 7
-45 4 -4 -3 -8 1 -8 8 0 10 -2 10 -9 -1 -5 -8 -11 -9 -15 -3 -3 5 -17 8 -31 7
-14 -2 -25 2 -25 8 0 7 -5 5 -10 -3 -5 -8 -10 -10 -10 -5 0 15 -41 16 -59 2
-12 -10 -14 -9 -9 4 5 13 2 16 -12 12 -10 -3 -21 0 -24 6 -5 8 -13 8 -28 0
-12 -6 -18 -7 -14 -1 7 12 -21 25 -35 16 -6 -3 -17 0 -25 7 -8 6 -17 9 -21 6
-3 -4 -12 1 -20 11 -8 9 -12 12 -9 5 4 -7 -1 -11 -14 -10 -11 1 -20 5 -20 9 0
5 -9 4 -20 -2 -15 -8 -20 -8 -20 2 0 9 -3 9 -10 -2 -7 -10 -13 -11 -17 -4 -10
13 -53 13 -53 0 0 -5 -7 -1 -16 10 -8 10 -13 14 -10 8 3 -7 -1 -15 -10 -18
-12 -5 -15 -2 -10 10 5 14 4 15 -9 4 -12 -10 -15 -10 -15 1 0 11 -2 11 -10 -1
-5 -8 -10 -10 -10 -4 0 14 -42 13 -52 -1 -4 -6 -8 -2 -8 8 0 20 -11 22 -28 5
-9 -9 -12 -9 -12 2 0 11 -3 11 -12 2 -9 -9 -15 -7 -25 6 -7 9 -12 13 -11 7 2
-5 -1 -10 -7 -10 -5 0 -9 4 -7 9 2 5 -3 4 -11 -2 -8 -7 -16 -9 -19 -6 -11 10
-138 9 -138 -1 0 -5 -5 -3 -10 5 -8 12 -10 12 -11 -5 0 -11 -3 -14 -6 -7 -2 6
-16 12 -29 12 -16 0 -23 -4 -18 -11 3 -6 -5 -3 -20 6 -14 10 -26 13 -26 7 0
-6 -13 -8 -31 -5 -21 3 -29 1 -24 -6 3 -6 1 -11 -4 -11 -6 0 -11 5 -11 11 0 8
-4 8 -14 0 -15 -13 -37 -11 -48 3 -4 6 -12 5 -20 -1 -17 -14 -68 -14 -68 1 0
8 -3 7 -8 -1 -4 -6 -27 -14 -50 -16 -24 -3 -50 -11 -59 -19 -9 -7 -14 -8 -10
-2 3 6 0 11 -7 11 -9 0 -12 -7 -8 -16 5 -14 3 -14 -11 -2 -9 7 -17 9 -17 4 0
-5 -7 -10 -15 -10 -8 0 -15 4 -15 9 0 5 -5 6 -10 3 -6 -4 -8 -12 -4 -18 3 -7
-1 -4 -9 6 -14 17 -33 24 -23 9 3 -5 -1 -9 -9 -9 -8 0 -12 4 -9 9 3 4 0 8 -5
8 -6 0 -11 -6 -11 -12 0 -10 -3 -9 -9 1 -5 7 -26 15 -47 17 -22 2 -43 5 -49 5
-5 1 -18 -2 -27 -6 -12 -4 -18 -3 -18 5 0 10 -3 10 -15 0 -12 -10 -15 -10 -15
0 0 9 -3 10 -13 1 -8 -6 -17 -8 -21 -4 -4 4 -26 8 -50 8 -23 1 -48 5 -54 9 -7
4 -12 2 -12 -4 0 -7 -7 -9 -16 -6 -9 4 -23 1 -30 -5 -11 -9 -14 -8 -14 2 0 11
-2 11 -10 -1 -6 -10 -10 -11 -10 -2 0 6 -5 12 -11 12 -5 0 -8 -4 -5 -8 2 -4
-4 -8 -15 -8 -10 0 -19 4 -19 9 0 5 -8 3 -17 -4 -9 -8 -14 -9 -10 -3 4 7 0 15
-9 18 -10 4 -13 2 -8 -7 5 -7 1 -7 -10 2 -12 10 -13 16 -6 21 8 5 6 9 -5 13
-14 6 -14 9 0 38 9 17 14 33 11 36 -3 3 1 12 9 20 8 8 15 23 15 34 0 11 3 18
8 16 4 -3 12 1 19 8 10 11 10 15 0 18 -7 3 -4 6 6 6 9 1 17 6 17 12 0 5 4 7
10 4 6 -3 7 1 4 9 -3 9 5 25 20 39 19 18 22 27 14 35 -8 8 -7 13 5 17 9 4 13
13 10 22 -4 11 -2 14 5 9 11 -6 14 0 11 20 0 3 7 16 16 30 9 13 13 30 9 36 -4
7 -3 8 5 4 6 -4 14 0 17 8 3 9 10 14 14 11 5 -3 7 6 6 20 -2 13 1 22 5 19 5
-3 9 2 9 11 0 9 4 14 9 11 5 -3 12 1 15 10 4 10 2 13 -7 9 -6 -4 -4 0 6 8 9 8
17 20 17 26 0 7 5 9 12 5 8 -5 9 -2 5 10 -4 9 -3 15 1 13 9 -6 33 19 25 27 -4
3 -1 6 5 6 6 0 14 9 17 20 4 11 11 18 16 14 5 -3 9 -2 8 3 -4 21 2 33 17 33
14 0 14 3 4 15 -11 13 -10 14 4 9 12 -5 19 0 23 15 3 11 9 21 14 21 5 0 8 4 7
8 -2 4 11 22 29 39 17 17 29 34 26 37 -3 3 2 8 11 12 9 3 13 10 10 15 -3 5 2
12 10 15 9 3 13 10 10 15 -3 5 0 9 5 9 6 0 11 6 11 14 0 8 9 21 21 29 15 11
17 16 7 20 -9 4 -8 6 4 6 11 1 15 8 14 26 -2 13 0 22 4 20 13 -8 19 22 7 34
-8 8 -8 11 1 11 7 0 12 5 12 10 0 6 -7 10 -16 10 -8 0 -12 5 -9 10 3 6 2 10
-4 10 -6 0 -7 7 -4 17 4 10 2 14 -5 9 -6 -3 -15 2 -21 11 -6 10 -11 12 -11 6z
m-817 -1062 c-1 -24 -6 -56 -11 -70 -6 -14 -14 -35 -18 -46 -4 -11 -6 -27 -5
-35 2 -8 0 -12 -5 -8 -4 4 -13 3 -20 -2 -6 -6 -20 -12 -31 -14 -10 -2 -38 -10
-63 -17 -25 -7 -51 -12 -57 -10 -7 1 -13 -2 -13 -6 0 -5 -9 -9 -20 -10 -13 -1
-18 2 -13 10 4 8 1 7 -9 -1 -14 -11 -20 -10 -39 9 -15 15 -18 24 -10 28 6 4 9
15 6 23 -3 8 1 23 10 31 9 9 16 20 17 24 0 4 4 18 9 31 5 13 9 26 9 30 0 11
60 56 79 59 9 2 31 4 48 6 18 1 33 4 33 7 0 3 24 5 53 5 l52 0 -2 -44z m-15
-11480 c1 -1 4 0 5 2 2 1 11 -4 20 -12 13 -10 17 -10 17 -1 0 9 3 10 13 1 8
-6 22 -12 33 -14 10 -1 24 -5 29 -9 6 -3 25 -5 43 -3 17 1 32 -1 32 -5 0 -4
10 -6 23 -6 12 1 28 -3 36 -8 7 -6 39 -11 70 -12 52 -2 99 -9 128 -19 7 -2 15
-1 17 4 6 9 73 7 105 -4 11 -3 21 -3 21 2 0 10 74 8 92 -3 18 -12 31 -12 46
-1 6 5 12 6 12 1 0 -5 11 -9 24 -9 13 0 24 4 23 9 -3 14 83 13 95 -2 9 -11 13
-11 19 0 6 8 9 9 9 2 0 -12 60 -9 69 4 3 4 51 7 106 7 55 0 105 2 110 6 6 3
17 5 25 4 8 -1 26 3 40 8 33 12 108 17 310 21 91 2 179 6 196 10 30 7 31 6 26
-26 -5 -31 -35 -67 -58 -68 -6 0 -24 -11 -40 -25 -16 -14 -33 -29 -39 -33 -5
-4 -24 -18 -41 -32 -17 -14 -48 -38 -70 -55 -21 -16 -51 -42 -66 -57 -16 -14
-28 -24 -28 -21 0 3 -8 -4 -19 -15 -10 -12 -21 -22 -24 -22 -3 0 -17 -10 -30
-22 -101 -96 -137 -128 -137 -121 0 4 -14 -7 -30 -26 -17 -18 -30 -30 -30 -25
0 4 -6 -1 -14 -11 -8 -11 -12 -24 -9 -29 4 -5 2 -6 -4 -3 -5 4 -21 -4 -34 -16
-13 -12 -27 -21 -32 -19 -5 1 -6 -2 -2 -8 3 -5 -2 -13 -12 -17 -23 -9 -84 -64
-79 -72 1 -3 -5 -14 -16 -23 -10 -10 -18 -15 -18 -12 0 3 -12 -8 -27 -25 -15
-17 -33 -31 -41 -31 -7 0 -10 -5 -6 -12 5 -8 2 -9 -9 -5 -11 4 -17 1 -17 -7 0
-13 -27 -31 -42 -28 -4 1 -5 -5 -2 -13 5 -11 2 -13 -10 -9 -11 4 -16 2 -14 -7
2 -8 -3 -13 -9 -12 -7 2 -13 -4 -13 -12 0 -9 -6 -12 -17 -8 -12 5 -14 3 -8 -7
6 -10 4 -12 -8 -7 -10 3 -17 2 -17 -4 0 -6 -4 -7 -10 -4 -5 3 -10 -1 -10 -9 0
-9 -8 -16 -18 -16 -9 0 -23 -9 -30 -20 -7 -11 -18 -17 -27 -14 -8 4 -15 1 -15
-4 0 -12 -39 -28 -55 -23 -5 1 -7 -1 -3 -4 7 -8 -55 -55 -72 -55 -6 0 -10 -5
-10 -11 0 -5 -4 -7 -10 -4 -5 3 -10 1 -10 -4 0 -6 -6 -11 -12 -11 -7 -1 -26
-8 -43 -16 -16 -8 -22 -12 -12 -9 9 2 17 2 17 -1 0 -6 -53 -28 -62 -26 -5 1
-8 -2 -8 -7 0 -5 -9 -11 -21 -14 -12 -3 -18 -10 -14 -16 3 -6 0 -9 -8 -6 -7 3
-24 -3 -37 -15 -26 -23 -34 -26 -24 -7 4 6 -5 0 -21 -15 -15 -16 -33 -28 -40
-28 -7 0 -16 -7 -19 -16 -3 -8 -10 -12 -16 -9 -5 3 -10 1 -10 -5 0 -6 -4 -9
-8 -6 -5 3 -16 -3 -25 -12 -20 -22 -47 -44 -47 -39 0 2 -35 -30 -79 -72 -43
-42 -78 -78 -78 -81 1 -3 -22 -29 -50 -57 -28 -29 -49 -53 -46 -53 4 0 -4 -8
-15 -19 -12 -10 -22 -24 -22 -31 0 -6 -5 -10 -12 -8 -13 5 -19 48 -7 48 4 0 7
18 6 40 -2 22 0 40 3 40 3 0 5 17 5 38 1 40 6 64 17 72 10 8 20 85 23 180 4
99 7 123 18 131 4 3 9 23 11 45 2 21 7 50 11 64 4 14 8 46 9 71 2 25 6 51 10
57 4 7 2 20 -3 30 -6 11 -8 22 -5 25 8 7 24 74 29 117 2 19 9 67 15 105 7 39
13 90 15 115 2 25 4 45 5 45 1 0 3 8 5 18 2 9 -1 17 -7 17 -7 0 -7 4 0 13 6 7
12 37 13 67 1 30 7 61 13 69 8 11 8 13 0 8 -18 -10 -23 28 -9 57 8 15 10 28 4
31 -5 4 -5 13 1 25 6 12 7 21 0 25 -5 3 -6 13 -3 21 10 27 10 78 0 98 -7 14
-6 17 5 11 10 -6 10 -5 1 5 -21 23 -4 40 35 36 21 -3 38 -5 40 -5z m1035 -731
c-10 -11 -19 -20 -21 -20 -1 0 2 9 8 20 6 11 15 20 20 20 6 0 2 -9 -7 -20z
m-828 -2311 c-4 -5 -12 -9 -18 -8 -9 0 -8 2 1 6 6 2 9 10 6 15 -4 7 -2 8 5 4
6 -4 9 -12 6 -17z m429 -215 c3 -8 2 -12 -4 -9 -6 3 -10 10 -10 16 0 14 7 11
14 -7z m136 -64 c0 -5 -2 -10 -4 -10 -3 0 -8 5 -11 10 -3 6 -1 10 4 10 6 0 11
-4 11 -10z m3560 -2160 c0 -5 -2 -10 -4 -10 -3 0 -8 5 -11 10 -3 6 -1 10 4 10
6 0 11 -4 11 -10z m100 -80 c0 -5 -2 -10 -4 -10 -3 0 -8 5 -11 10 -3 6 -1 10
4 10 6 0 11 -4 11 -10z m810 -690 c0 -5 -2 -10 -4 -10 -3 0 -8 5 -11 10 -3 6
-1 10 4 10 6 0 11 -4 11 -10z"/>
<path d="M22425 8761 c-3 -5 0 -13 6 -17 7 -4 9 -3 5 4 -3 5 0 13 6 15 9 4 10
6 1 6 -6 1 -14 -3 -18 -8z"/>
<path d="M14179 7127 c7 -9 17 -15 21 -12 5 3 11 0 13 -5 3 -6 4 -5 3 2 -2 7
-7 13 -12 13 -5 0 -16 4 -24 10 -13 8 -13 7 -1 -8z"/>
<path d="M14650 7051 c0 -5 7 -12 16 -15 14 -5 15 -4 4 9 -14 17 -20 19 -20 6z"/>
<path d="M19110 4376 c0 -2 9 -6 20 -9 11 -3 18 -1 14 4 -5 9 -34 13 -34 5z"/>
</g>
</svg>
